<?xml version="1.0" standalone="no"?>
<!DOCTYPE svg PUBLIC "-//W3C//DTD SVG 20010904//EN"
 "http://www.w3.org/TR/2001/REC-SVG-20010904/DTD/svg10.dtd">
<svg version="1.0" xmlns="http://www.w3.org/2000/svg"
 width="80.000000pt" height="80.000000pt" viewBox="0 0 80.000000 80.000000"
 preserveAspectRatio="xMidYMid meet">
<metadata>
Created by potrace 1.16, written by Peter Selinger 2001-2019
</metadata>
<g transform="translate(0.000000,80.000000) scale(0.100000,-0.100000)"
fill="#000000" stroke="none">
<path d="M327 688 c3 -6 13 -8 22 -5 12 3 17 -3 19 -22 1 -25 1 -25 -13 -7
-13 17 -15 17 -15 3 0 -9 9 -22 21 -31 17 -12 20 -22 16 -56 -4 -38 -17 -69
-17 -41 0 7 -9 9 -24 5 -26 -6 -56 17 -56 44 1 11 6 8 16 -10 14 -26 33 -35
47 -22 11 12 -5 33 -20 27 -11 -4 -14 -2 -9 5 4 7 -1 15 -12 20 -15 5 -18 12
-11 30 5 12 15 22 24 22 8 0 15 7 15 15 0 17 -9 19 -30 5 -9 -6 -19 -5 -28 3
-16 13 -42 18 -42 9 0 -4 5 -14 10 -22 8 -12 11 -13 19 -1 6 10 10 10 16 1 9
-15 3 -21 -24 -23 -11 -1 -21 -5 -21 -10 0 -5 7 -7 15 -3 11 4 15 -2 15 -23 0
-25 -3 -28 -25 -23 -15 2 -25 0 -25 -7 0 -6 6 -11 13 -11 7 0 22 -6 33 -14 16
-12 17 -17 6 -28 -11 -11 -12 -10 -6 6 5 13 4 17 -3 13 -6 -4 -14 -1 -16 5 -3
7 -6 2 -7 -12 -1 -14 -4 -20 -6 -13 -3 7 -12 9 -20 6 -7 -3 -17 2 -20 11 -3 9
-10 16 -15 16 -4 0 -6 -7 -3 -15 4 -10 0 -15 -15 -15 -12 0 -21 -6 -21 -14 0
-21 -23 -25 -37 -7 -10 14 -12 12 -18 -11 -4 -15 -13 -32 -21 -39 -8 -6 -14
-17 -14 -23 0 -6 5 -3 11 7 8 14 14 15 24 7 10 -8 17 -6 29 12 19 26 21 19 4
-17 -6 -14 -15 -25 -19 -25 -5 0 -4 -12 1 -26 6 -14 6 -23 1 -20 -5 4 -11 3
-14 -1 -2 -5 -2 -2 -1 5 4 14 -12 16 -21 3 -3 -5 1 -15 8 -23 8 -7 17 -30 21
-50 11 -60 64 -155 107 -190 53 -44 125 -64 224 -63 68 1 88 6 130 30 67 37
75 44 68 61 -3 8 5 17 21 24 33 12 34 30 1 30 -25 0 -46 -26 -38 -47 7 -20
-12 -15 -32 7 -11 13 -15 25 -10 37 5 10 7 23 6 30 -1 6 3 14 9 18 7 4 4 18
-10 40 -27 44 -13 83 19 53 11 -10 14 -10 18 0 3 6 9 12 15 12 7 0 7 -5 -1
-13 -6 -8 -8 -17 -4 -21 16 -15 10 -33 -8 -29 -10 3 -20 9 -20 14 -1 5 -2 13
-3 18 -2 19 -16 23 -16 5 1 -30 24 -54 48 -49 12 2 24 0 27 -6 4 -5 -5 -9 -19
-9 -14 0 -26 -4 -26 -10 0 -5 10 -9 23 -8 37 1 47 -1 47 -13 0 -8 -6 -7 -17 2
-16 13 -17 12 -4 -3 17 -22 31 -23 31 -3 0 8 5 15 10 15 6 0 10 8 10 18 0 14
-2 15 -10 2 -7 -12 -12 -12 -22 -2 -8 8 -8 12 -1 12 6 0 9 9 6 20 -3 11 -9 20
-14 20 -5 0 -6 -7 -3 -15 4 -8 2 -15 -4 -15 -17 0 -19 33 -5 68 8 21 18 30 25
26 9 -6 9 -9 0 -12 -7 -2 -12 -10 -12 -18 0 -8 16 2 35 23 36 38 43 53 24 53
-5 0 -7 5 -3 12 4 7 3 8 -4 4 -6 -3 -16 3 -22 14 -9 16 -8 20 4 20 10 0 13 6
10 15 -4 10 -14 13 -29 9 -13 -3 -26 -1 -29 5 -11 16 -26 13 -20 -4 3 -8 11
-13 17 -12 7 1 11 -4 9 -11 -1 -8 2 -11 8 -7 13 8 8 -23 -7 -50 -10 -17 -14
-18 -25 -6 -9 10 -10 12 0 7 7 -4 12 -1 12 8 0 15 -12 21 -33 17 -5 -1 -6 3
-3 8 4 5 2 12 -4 16 -5 3 -10 1 -10 -5 0 -6 -6 -8 -12 -4 -7 4 -4 -2 6 -14 12
-14 14 -22 7 -22 -7 0 -10 -4 -7 -8 2 -4 0 -14 -5 -22 -7 -12 -10 -11 -15 8
-4 15 -12 21 -21 18 -9 -4 -12 -1 -7 7 15 27 40 50 63 59 19 7 22 11 12 21 -8
8 -14 9 -19 1 -4 -6 -17 -16 -29 -23 -19 -10 -22 -9 -20 9 1 11 5 20 9 20 4 0
8 8 8 18 0 10 3 13 8 6 4 -6 17 -13 30 -17 19 -4 22 -2 17 13 -4 12 5 29 23
50 20 21 31 27 34 19 3 -10 6 -10 12 -1 4 7 2 12 -4 12 -6 0 -8 5 -4 12 4 7 3
8 -4 4 -7 -4 -12 -1 -12 6 0 8 -5 19 -12 26 -16 16 -39 -17 -27 -40 5 -9 7
-23 4 -30 -6 -15 -55 -21 -55 -7 0 5 10 9 23 10 21 1 21 1 -3 9 -14 4 -21 8
-16 9 24 3 -48 51 -76 51 -25 0 -28 3 -19 14 9 10 8 15 -3 19 -10 4 -18 -11
-31 -56 -9 -34 -17 -68 -17 -74 -1 -7 -5 -13 -10 -13 -12 0 -10 38 2 45 6 4 8
11 4 16 -3 5 0 17 7 26 12 14 10 15 -16 9 -29 -6 -30 -5 -30 26 0 28 -4 32
-27 33 -15 1 -25 -2 -21 -7z m119 -310 c7 -5 17 -22 24 -38 7 -17 18 -30 24
-30 6 -1 21 -9 34 -20 16 -14 21 -26 18 -46 -5 -28 -16 -45 -16 -26 0 7 -15
12 -36 12 -19 0 -33 -4 -29 -9 3 -6 -4 -9 -15 -8 -13 1 -16 5 -10 11 14 14 12
26 -4 26 -9 0 -13 9 -12 23 2 20 -1 23 -21 19 -26 -5 -29 -12 -11 -30 9 -9 9
-12 0 -12 -7 0 -12 4 -12 9 0 5 -18 11 -39 13 -32 3 -41 0 -45 -15 -3 -11 -9
-16 -16 -12 -6 4 -17 2 -24 -4 -9 -8 -13 -7 -13 4 0 8 4 12 9 9 4 -3 8 -1 8 5
0 5 -5 11 -12 13 -7 3 -9 12 -5 22 5 11 13 16 23 12 9 -4 13 -2 8 5 -4 7 -1
10 7 7 15 -5 27 5 45 37 22 40 84 52 120 23z"/>
</g>
</svg>
