<?xml version="1.0" standalone="no"?>
<!DOCTYPE svg PUBLIC "-//W3C//DTD SVG 20010904//EN"
 "http://www.w3.org/TR/2001/REC-SVG-20010904/DTD/svg10.dtd">
<svg version="1.0" xmlns="http://www.w3.org/2000/svg"
 width="9133.000000pt" height="9133.000000pt" viewBox="0 0 9133.000000 9133.000000"
 preserveAspectRatio="xMidYMid meet">

<g transform="translate(0.000000,9133.000000) scale(0.100000,-0.100000)"
fill="#000000" stroke="none">
<path d="M44905 82833 c-98 -20 -215 -83 -295 -157 -86 -79 -190 -126 -391
-175 -303 -73 -539 -98 -1152 -121 -274 -10 -499 -20 -501 -21 -1 -2 26 -492
60 -1089 35 -597 68 -1213 74 -1370 39 -1053 141 -2053 235 -2320 28 -81 108
-176 176 -210 200 -103 414 216 522 780 53 275 66 417 77 865 5 211 16 445 25
525 53 482 190 818 484 1190 48 60 223 244 406 425 435 431 536 545 701 790
126 187 191 334 201 452 8 89 -25 152 -136 263 -93 92 -169 138 -276 165 -55
14 -163 18 -210 8z"/>
<path d="M48580 82449 c-300 -30 -552 -115 -763 -257 -162 -108 -404 -343
-582 -564 -505 -624 -709 -1556 -530 -2408 219 -1033 1013 -1673 2268 -1825
404 -48 677 -45 1692 23 l710 47 127 1260 c172 1721 197 2021 218 2635 14 414
-2 717 -42 793 -12 22 -38 33 -158 63 -310 76 -1047 166 -1820 220 -265 18
-984 27 -1120 13z m715 -970 c216 -67 443 -232 703 -513 269 -289 392 -527
433 -834 15 -110 6 -299 -20 -412 -127 -559 -607 -1016 -1181 -1126 -195 -37
-449 -20 -637 42 -371 124 -725 444 -869 786 -169 400 -73 859 278 1322 308
406 660 687 943 750 96 21 256 15 350 -15z"/>
<path d="M38230 82135 c-261 -42 -545 -143 -884 -312 -180 -90 -280 -153 -401
-255 -474 -396 -865 -1085 -1008 -1774 -44 -209 -52 -290 -52 -509 0 -234 13
-317 82 -525 72 -220 239 -515 419 -740 92 -116 367 -388 489 -486 308 -245
678 -443 1010 -539 224 -65 425 -90 640 -82 926 38 1717 550 2120 1372 167
341 254 683 271 1065 14 307 -41 660 -148 955 -87 241 -248 529 -408 730 -260
326 -794 763 -1143 934 -128 63 -310 128 -437 156 -104 23 -434 29 -550 10z
m323 -1280 c388 -51 757 -224 922 -432 264 -332 360 -784 264 -1232 -124 -574
-537 -1053 -1014 -1177 -84 -22 -122 -26 -235 -26 -167 0 -284 27 -435 101
-436 213 -747 730 -836 1391 -18 135 -16 460 5 590 45 280 112 449 221 549
129 118 354 210 590 240 116 14 394 12 518 -4z"/>
<path d="M55050 81856 c-76 -23 -102 -35 -166 -81 -140 -100 -247 -251 -404
-570 -541 -1102 -1008 -2611 -1111 -3595 -18 -172 -15 -438 6 -535 28 -132 54
-174 168 -276 106 -94 199 -149 251 -149 44 1 107 32 149 74 144 144 288 465
702 1571 219 582 286 748 399 980 240 493 440 696 764 772 111 26 555 26 652
0 240 -65 342 -200 392 -522 16 -103 16 -606 0 -815 -29 -366 -77 -837 -143
-1385 -16 -137 -35 -332 -41 -433 -23 -368 27 -655 130 -754 101 -97 223 -60
387 114 173 184 363 526 535 963 297 756 529 1208 784 1530 285 358 573 504
869 439 91 -20 251 -97 342 -165 89 -67 304 -283 372 -374 111 -148 151 -253
160 -420 13 -251 -58 -540 -342 -1385 -256 -763 -346 -1154 -345 -1498 0 -286
59 -421 237 -543 97 -67 208 -87 304 -54 253 87 539 594 846 1500 282 834 390
1667 297 2295 -141 961 -685 1561 -1561 1725 -144 27 -257 36 -528 45 -291 10
-420 26 -640 81 -284 71 -586 200 -740 317 -44 34 -115 88 -158 121 -97 74
-231 155 -385 231 -270 134 -496 210 -803 270 -471 93 -707 182 -862 327 -95
89 -188 151 -272 182 -74 28 -184 35 -245 17z"/>
<path d="M32225 80510 c-534 -45 -937 -256 -1413 -738 -227 -231 -400 -469
-527 -727 -120 -245 -191 -466 -231 -725 -25 -159 -25 -507 -1 -673 68 -456
268 -914 563 -1287 104 -131 364 -384 499 -486 374 -280 772 -446 1220 -510
145 -20 435 -23 580 -5 428 54 821 206 1215 471 384 258 665 617 756 965 12
45 18 107 19 175 0 93 -3 111 -26 161 -54 115 -150 171 -294 172 -49 1 -105
-6 -145 -18 -214 -60 -620 -253 -940 -447 -269 -162 -391 -217 -583 -263 -516
-122 -1019 16 -1383 379 -269 270 -398 578 -398 951 0 320 95 600 317 935 127
191 225 284 382 360 205 100 438 139 1090 180 309 19 402 32 525 71 147 48
262 134 311 234 20 41 24 65 24 136 0 79 -3 91 -39 164 -131 264 -521 467
-991 514 -150 15 -417 21 -530 11z"/>
<path d="M67498 79145 c-202 -38 -483 -161 -663 -290 -108 -77 -288 -244 -351
-326 -84 -110 -109 -197 -77 -270 39 -88 128 -154 268 -198 133 -42 246 -55
447 -48 315 10 641 89 910 222 122 60 193 109 269 185 126 125 141 222 60 386
-80 161 -227 278 -416 330 -84 23 -344 28 -447 9z"/>
<path d="M25875 77823 c-197 -12 -500 -74 -636 -129 -335 -136 -674 -515 -929
-1039 -322 -662 -452 -1418 -339 -1980 28 -139 110 -377 178 -520 324 -677
953 -1177 1715 -1365 767 -188 1536 -33 2121 430 271 215 574 608 765 995 176
356 250 649 250 992 0 176 -17 315 -60 479 -184 710 -789 1411 -1561 1806
-468 240 -1021 362 -1504 331z m665 -1197 c316 -69 611 -248 848 -516 90 -102
280 -380 356 -521 61 -114 101 -225 116 -323 21 -142 -16 -300 -116 -485 -366
-681 -934 -1064 -1498 -1011 -687 65 -1148 731 -1123 1620 9 322 72 538 223
766 161 244 443 428 724 474 41 6 82 13 90 15 38 10 312 -5 380 -19z"/>
<path d="M65240 77323 c-569 -44 -1100 -235 -1475 -528 -96 -76 -278 -260
-365 -370 -284 -361 -457 -767 -527 -1240 -24 -165 -24 -522 1 -690 68 -471
236 -889 502 -1245 94 -126 295 -335 419 -435 315 -255 691 -418 1110 -481
162 -25 500 -25 670 0 596 85 1110 358 1523 810 367 401 606 911 694 1481 29
188 31 569 5 750 -74 497 -284 997 -553 1315 -341 402 -1010 644 -1759 638
-110 -1 -220 -3 -245 -5z m563 -1057 c199 -51 376 -156 526 -311 103 -106 183
-223 246 -358 355 -761 150 -1557 -495 -1922 -268 -152 -665 -236 -970 -206
-332 33 -591 151 -805 366 -220 220 -337 491 -352 811 -15 324 87 640 300 927
80 109 290 323 402 409 203 158 431 263 659 303 128 23 365 13 489 -19z"/>
<path d="M21109 74686 c-229 -41 -566 -175 -864 -344 -130 -74 -355 -225 -466
-313 -138 -109 -360 -328 -472 -464 -295 -359 -481 -776 -549 -1230 -19 -133
-17 -491 5 -635 46 -300 142 -600 282 -880 331 -661 720 -1035 1255 -1208 242
-78 479 -116 840 -133 250 -12 585 -1 797 26 768 98 1224 412 1611 1110 163
294 289 588 339 794 33 135 38 298 10 377 -92 263 -423 212 -857 -133 -47 -37
-211 -191 -365 -343 -154 -152 -324 -311 -379 -354 -617 -493 -1245 -606
-1741 -314 -417 245 -652 683 -632 1178 17 426 204 823 538 1145 159 153 266
227 512 356 281 148 443 264 595 424 148 156 238 319 262 473 35 224 -103 397
-365 455 -102 23 -265 29 -356 13z"/>
<path d="M71031 74028 c-179 -88 -778 -711 -1556 -1618 -154 -179 -347 -404
-430 -500 -480 -559 -790 -985 -922 -1268 -68 -145 -96 -254 -91 -360 4 -110
35 -180 110 -255 196 -196 439 -142 834 185 143 119 457 431 753 748 794 851
1143 1172 1426 1314 111 56 187 76 285 76 176 0 322 -82 553 -309 181 -177
280 -316 340 -474 27 -72 31 -98 35 -214 7 -200 -31 -341 -159 -594 -145 -287
-296 -503 -797 -1146 -338 -434 -777 -1079 -900 -1322 -55 -108 -57 -116 -56
-186 1 -55 8 -86 27 -129 52 -113 129 -152 281 -143 114 6 208 37 381 122 497
244 1083 792 1648 1540 399 528 575 904 644 1374 33 223 19 780 -23 930 -63
224 -398 653 -904 1161 -593 593 -1164 1036 -1394 1079 -37 7 -54 5 -85 -11z"/>
<path d="M75565 62924 c-744 -28 -1264 -75 -1815 -165 -2015 -326 -3756 -1132
-5920 -2742 -570 -424 -1320 -1027 -1945 -1562 -810 -694 -1740 -1334 -2500
-1719 -388 -197 -606 -274 -965 -340 -494 -91 -1404 -179 -2390 -230 -799 -42
-1287 -54 -2575 -61 -1699 -10 -2259 -30 -2755 -101 -326 -47 -533 -104 -735
-204 -184 -92 -284 -169 -506 -390 -262 -262 -373 -413 -460 -630 -156 -389
-182 -874 -114 -2115 53 -956 151 -1676 324 -2370 340 -1370 926 -2479 1889
-3583 176 -202 717 -745 935 -940 1306 -1168 2962 -2255 5572 -3657 1287 -692
2371 -1311 3555 -2030 4701 -2857 8929 -6007 10905 -8125 809 -868 1457 -1765
2125 -2945 851 -1502 1837 -3179 2460 -4185 219 -354 1163 -1830 1170 -1830 3
0 17 19 31 43 15 23 78 125 141 227 143 231 327 535 451 747 l95 162 -92 123
c-489 650 -1266 1870 -1958 3073 -364 633 -651 1163 -946 1750 -745 1480
-1339 2392 -2161 3315 -192 216 -811 838 -1062 1066 -973 888 -2256 1920
-4164 3349 -3463 2593 -6147 4307 -10105 6450 -642 348 -852 463 -1280 703
-1571 883 -2770 1655 -2770 1784 0 38 57 115 129 175 196 163 526 333 896 463
181 63 335 131 470 207 867 488 1762 1475 1792 1978 4 65 1 90 -16 136 -12 31
-30 64 -40 73 -85 77 -374 -43 -730 -302 -141 -102 -268 -208 -443 -369 -355
-325 -624 -516 -978 -691 -414 -207 -813 -320 -1364 -387 -785 -96 -1064 -96
-1301 2 -143 59 -304 197 -436 373 -167 223 -580 912 -879 1465 -149 275 -400
787 -488 995 -185 437 -273 733 -275 930 -2 158 24 189 213 250 209 67 483
104 880 120 249 9 348 22 520 65 747 189 1553 767 2129 1524 235 310 391 583
543 951 138 334 246 520 377 651 276 274 657 377 1861 504 938 99 1704 232
2302 400 1299 365 2270 981 3926 2494 599 547 987 872 1507 1262 1683 1263
3535 2148 5320 2543 401 88 695 128 1250 168 284 20 1493 17 1845 -5 924 -59
1685 -153 2426 -302 631 -127 1112 -272 1654 -498 2429 -1014 4658 -3003 6027
-5377 45 -79 83 -137 83 -128 0 28 -246 1002 -349 1378 -162 595 -293 1043
-471 1610 l-93 295 -51 44 c-111 95 -415 371 -696 631 -738 682 -1306 1135
-1985 1582 -1315 867 -2742 1423 -4342 1693 -671 113 -1229 166 -2248 215
-210 10 -1230 20 -1400 14z"/>
<path d="M14010 62783 c-1969 -47 -3287 -270 -4515 -761 -855 -342 -1719 -850
-2710 -1593 -284 -213 -510 -391 -1106 -872 l-506 -409 -78 -241 c-237 -736
-413 -1323 -601 -2012 -102 -371 -277 -1055 -272 -1061 2 -2 22 27 43 64 71
120 369 563 505 747 595 808 1329 1582 2140 2256 1506 1251 3240 2160 4940
2589 362 91 868 194 1405 285 534 92 886 125 1311 125 615 0 1086 -62 2279
-301 594 -119 915 -189 1240 -271 2189 -551 3804 -1476 5914 -3383 587 -531
842 -754 1141 -996 1547 -1253 2721 -1725 4985 -2004 160 -20 400 -49 535 -66
1149 -141 1521 -278 1606 -593 8 -28 19 -118 24 -201 14 -228 59 -381 181
-615 389 -745 1389 -1647 2354 -2122 285 -140 557 -238 815 -293 562 -120 670
-149 825 -224 121 -58 193 -120 232 -198 72 -147 20 -436 -148 -833 -168 -396
-564 -1124 -866 -1588 -563 -868 -1210 -1279 -1963 -1249 -500 21 -1018 219
-1625 621 -363 241 -670 489 -1151 929 -480 440 -889 601 -1079 426 -155 -143
-113 -484 114 -936 192 -383 498 -702 974 -1017 434 -287 917 -520 1634 -787
378 -141 506 -202 580 -275 82 -83 67 -160 -56 -284 -246 -249 -746 -542
-3021 -1775 -2982 -1616 -5387 -3056 -7686 -4600 -2637 -1772 -4892 -3499
-7299 -5589 -861 -747 -1435 -1367 -1996 -2151 -515 -721 -1091 -1681 -1752
-2920 -770 -1446 -1605 -2886 -2096 -3615 -139 -207 -210 -302 -385 -513 -99
-120 -146 -183 -142 -194 24 -61 678 -1144 691 -1144 4 0 38 55 77 123 131
229 339 530 497 718 330 391 1268 1893 2158 3455 189 331 269 476 783 1405
1023 1850 1515 2553 2391 3415 532 524 1246 1131 2569 2186 3853 3074 7355
5377 11925 7841 726 392 942 512 1450 808 1695 987 3379 2122 4020 2707 126
116 363 366 535 566 1005 1171 1813 2753 2250 4407 165 623 262 1184 325 1870
89 981 82 1382 -30 1729 -60 186 -146 335 -309 535 -108 133 -533 561 -666
671 -397 328 -775 443 -1625 495 -343 21 -869 29 -2105 35 -1248 6 -1900 16
-2360 35 -2608 113 -3800 513 -5435 1825 -245 197 -435 358 -724 613 -315 280
-463 407 -676 581 -900 738 -2030 1537 -2975 2103 -426 256 -730 416 -1225
648 -1705 796 -2225 884 -5220 878 -517 -1 -987 -3 -1045 -5z"/>
<path d="M8673 59034 c-55 -20 -125 -96 -150 -165 -55 -144 -56 -343 -5 -496
76 -224 228 -454 382 -578 130 -104 323 -388 612 -900 348 -615 812 -1558
1115 -2264 1028 -2399 1366 -4988 883 -6762 -128 -469 -310 -864 -605 -1309
-399 -603 -867 -1077 -1427 -1444 -574 -376 -1177 -598 -1858 -683 -222 -27
-736 -25 -956 5 -639 86 -1124 256 -1732 605 -327 189 -520 280 -752 355 -227
74 -420 94 -545 57 -98 -28 -165 -112 -165 -207 0 -90 62 -243 154 -382 121
-181 416 -489 600 -626 927 -687 2874 -1038 4235 -764 241 49 403 105 656 228
1110 539 2510 1893 3050 2951 209 408 386 1012 479 1635 101 668 122 1464 60
2275 -162 2141 -882 4473 -1959 6350 -410 714 -792 1241 -1190 1641 -216 217
-389 350 -559 429 -142 67 -234 80 -323 49z"/>
<path d="M82083 58996 c-225 -170 -874 -1061 -1366 -1876 -1219 -2021 -1982
-4134 -2196 -6080 -41 -371 -52 -566 -58 -990 -11 -834 59 -1476 237 -2175
441 -1736 1452 -3038 2945 -3795 1510 -765 2930 -868 4340 -315 204 80 340
142 595 270 703 355 1025 619 1090 894 35 151 -44 406 -143 458 -81 42 -262
24 -486 -49 -224 -73 -428 -168 -736 -343 -220 -125 -264 -148 -445 -225
-1007 -431 -2275 -489 -3360 -154 -275 85 -657 258 -847 383 -261 171 -625
527 -939 916 -219 272 -488 661 -639 924 -213 372 -463 930 -584 1303 -202
626 -242 1180 -156 2143 167 1848 789 3923 1708 5690 272 524 525 935 916
1489 558 792 739 1254 571 1458 -57 69 -196 118 -337 118 -45 0 -58 -5 -110
-44z"/>
<path d="M19815 55444 c-703 -54 -1292 -153 -1846 -309 -421 -119 -641 -214
-926 -402 -381 -250 -631 -531 -713 -802 -20 -66 -22 -88 -17 -220 8 -222 49
-344 144 -431 74 -67 133 -84 268 -78 83 5 123 13 224 47 206 69 456 198 749
387 310 200 714 344 1272 452 467 91 922 128 1450 117 464 -10 841 12 1040 61
101 25 209 79 263 132 98 95 130 200 130 427 1 110 -4 167 -16 214 -67 251
-249 341 -797 392 -110 10 -1122 21 -1225 13z"/>
<path d="M70710 55424 c-537 -37 -908 -142 -1120 -317 -65 -54 -153 -164 -222
-278 -110 -182 -115 -328 -16 -414 83 -71 217 -103 463 -112 202 -7 406 6 735
48 326 41 514 53 725 45 418 -14 758 -77 1175 -216 264 -88 467 -174 769 -327
378 -193 614 -288 886 -358 547 -141 905 -45 905 243 0 155 -104 362 -269 535
-276 289 -733 538 -1391 757 -574 192 -1179 317 -1826 375 -159 15 -694 27
-814 19z"/>
<path d="M42840 39093 c-1165 -65 -2161 -323 -2910 -752 -738 -423 -1566
-1086 -2111 -1688 -1162 -1286 -1788 -2664 -1900 -4180 -15 -215 -7 -806 15
-1003 124 -1124 507 -2148 1177 -3145 550 -819 1348 -1662 2134 -2252 826
-620 1739 -999 2765 -1147 392 -56 697 -76 1180 -76 581 0 723 11 2100 156
547 57 1001 104 1007 104 10 0 13 -255 13 -1242 1 -1304 12 -2346 30 -2658 28
-501 72 -816 146 -1039 49 -149 87 -215 174 -302 66 -67 85 -80 158 -108 214
-82 474 -113 652 -77 292 60 523 248 708 576 120 214 240 598 301 965 59 351
81 641 88 1155 7 517 1 652 -72 1749 -30 448 -53 816 -51 818 7 8 1565 75
1837 80 511 9 843 -31 1159 -139 576 -197 937 -603 1180 -1327 103 -307 164
-567 250 -1076 203 -1200 421 -1825 760 -2187 235 -252 515 -372 928 -398 603
-38 1019 209 1155 685 28 101 35 329 12 450 -33 178 -114 380 -219 542 -130
201 -241 488 -310 793 -40 179 -55 299 -66 507 -16 310 -83 614 -235 1068
-149 447 -265 723 -518 1232 -246 496 -318 686 -333 890 -17 236 62 438 368
946 164 272 289 506 367 688 699 1629 346 3542 -880 4768 -351 351 -770 641
-1149 796 -604 248 -1528 445 -2570 549 -1291 130 -2427 85 -2993 -118 -184
-65 -397 -202 -517 -333 -185 -201 -277 -516 -319 -1098 -26 -352 -33 -852
-40 -2609 l-6 -1868 -475 -169 c-261 -93 -563 -198 -672 -234 -1168 -384
-2380 -401 -3410 -49 -446 152 -818 359 -1313 729 -880 658 -1500 1404 -1855
2235 -149 348 -250 733 -300 1140 -18 142 -24 590 -11 755 49 616 217 1210
520 1830 205 421 408 735 702 1090 107 128 435 456 564 564 827 688 1781 1072
2880 1162 181 14 618 14 810 -1 651 -50 1255 -201 1895 -472 52 -22 214 -98
360 -168 660 -319 1084 -451 1455 -451 266 0 444 64 575 207 132 145 193 350
193 644 -1 366 -89 629 -306 920 -88 119 -279 311 -417 420 -804 637 -2179
1062 -3714 1150 -159 9 -804 11 -946 3z m7146 -7463 c745 -43 1450 -182 1881
-373 342 -151 628 -419 782 -732 92 -186 141 -354 173 -595 16 -121 16 -540 0
-685 -97 -868 -486 -1388 -1237 -1655 -209 -74 -513 -135 -815 -165 -323 -32
-1137 -29 -1450 6 -314 34 -510 124 -620 284 -111 161 -193 457 -285 1020
-182 1113 -178 2171 10 2561 71 147 208 229 475 283 270 55 681 74 1086 51z"/>
<path d="M27808 16626 c-243 -65 -334 -394 -389 -1401 -8 -140 -13 -916 -16
-2338 l-4 -2129 1083 5 c648 3 1133 9 1208 16 640 55 943 162 1205 425 175
175 437 569 556 836 52 117 109 286 134 400 25 114 31 391 11 510 -56 326
-221 641 -524 1005 -109 130 -450 467 -568 561 -277 222 -539 353 -805 405
-122 23 -337 25 -454 4 -44 -9 -132 -25 -195 -36 -142 -26 -364 -31 -425 -10
-128 45 -190 140 -221 340 -8 56 -18 231 -24 421 -7 251 -13 352 -29 443 -37
209 -94 345 -183 436 -58 59 -102 85 -185 106 -68 18 -112 18 -175 1z m1895
-2659 c111 -29 254 -94 348 -157 265 -178 477 -450 551 -707 20 -66 23 -101
22 -228 0 -134 -3 -160 -28 -240 -62 -202 -212 -438 -412 -644 -123 -128 -208
-194 -320 -250 -158 -79 -298 -108 -468 -98 -136 8 -240 36 -371 102 -420 208
-668 674 -641 1205 9 186 43 323 116 471 148 301 426 511 750 568 30 5 123 8
205 7 122 -3 168 -8 248 -29z"/>
<path d="M47545 16633 c-153 -21 -353 -159 -416 -288 -21 -44 -24 -63 -24
-155 1 -91 5 -114 27 -168 52 -123 146 -230 258 -295 104 -60 236 -86 317 -62
210 63 314 491 185 765 -36 77 -124 162 -187 183 -59 18 -118 26 -160 20z"/>
<path d="M44325 16611 c-89 -41 -175 -157 -223 -303 -44 -136 -62 -264 -72
-512 -15 -359 -59 -549 -162 -692 -36 -50 -101 -94 -140 -94 -13 0 -49 -7 -78
-16 -42 -12 -67 -29 -115 -77 -108 -110 -162 -266 -152 -442 13 -243 130 -431
280 -451 37 -5 60 -16 87 -41 160 -144 293 -744 355 -1603 73 -1009 255 -1476
605 -1551 82 -17 226 -7 278 19 131 68 176 279 153 716 -11 212 -24 377 -57
721 -21 222 -30 905 -15 1105 23 295 63 494 125 624 34 71 53 92 157 177 82
68 139 197 139 317 0 137 -52 298 -180 552 -176 350 -310 671 -415 987 -109
328 -218 495 -366 563 -57 25 -150 26 -204 1z"/>
<path d="M47388 15031 c-111 -71 -260 -349 -323 -600 -55 -220 -75 -454 -75
-875 0 -409 20 -727 71 -1136 105 -852 290 -1470 472 -1581 39 -23 116 -25
157 -4 179 93 260 690 260 1930 0 1112 -106 1866 -305 2176 -54 83 -92 111
-159 117 -44 3 -58 -1 -98 -27z"/>
<path d="M41395 15000 c-62 -25 -134 -149 -184 -320 -69 -231 -99 -458 -111
-850 -5 -162 -14 -351 -20 -420 -46 -530 -185 -1072 -353 -1372 -46 -82 -162
-233 -237 -308 -172 -172 -357 -250 -527 -222 -379 63 -677 605 -782 1427 -22
169 -32 344 -41 740 -5 226 -14 457 -20 515 -78 785 -297 996 -668 646 -52
-50 -112 -117 -133 -149 -138 -212 -208 -696 -181 -1245 48 -967 292 -1824
603 -2118 291 -274 759 -474 1245 -530 184 -21 471 -15 634 15 387 69 707 246
814 450 136 260 238 809 288 1561 16 250 16 978 0 1200 -43 575 -136 925 -258
976 -38 16 -41 16 -69 4z"/>
<path d="M34811 14959 c-336 -36 -658 -164 -955 -380 -127 -93 -380 -343 -474
-471 -298 -400 -447 -868 -429 -1348 33 -860 565 -1606 1341 -1879 498 -175
1086 -155 1531 54 422 197 738 567 899 1055 98 295 130 512 130 875 0 292 -11
392 -70 623 -131 514 -436 941 -865 1211 -319 200 -738 298 -1108 260z m64
-929 c320 -30 623 -174 832 -393 98 -104 138 -165 257 -404 175 -348 211 -457
204 -615 -5 -113 -33 -180 -125 -303 -72 -95 -449 -468 -548 -543 -85 -63
-199 -124 -280 -148 -86 -26 -254 -24 -361 4 -317 84 -482 200 -647 457 -244
382 -348 954 -246 1359 84 334 343 551 702 585 45 5 87 9 92 10 6 0 60 -4 120
-9z"/>
<path d="M62034 14951 c-345 -63 -672 -245 -987 -550 -206 -200 -316 -350
-437 -593 -158 -320 -240 -677 -242 -1048 -1 -373 65 -667 217 -975 161 -326
401 -569 706 -714 347 -166 809 -251 1289 -238 370 11 687 77 921 192 210 103
317 214 375 387 100 300 -56 358 -621 232 -285 -63 -420 -84 -595 -90 -462
-18 -817 103 -1057 359 -97 104 -116 168 -66 228 83 98 379 161 1128 239 767
80 1164 165 1460 310 342 168 430 405 275 738 -78 167 -215 353 -443 601 -465
506 -917 805 -1382 912 -132 30 -403 35 -541 10z m432 -992 c428 -42 805 -177
963 -343 140 -149 98 -250 -125 -302 -96 -21 -485 -30 -696 -15 -454 33 -821
128 -1001 258 -68 50 -97 96 -97 155 0 43 4 52 41 89 73 73 238 135 414 158
101 12 374 13 501 0z"/>
<path d="M58300 14927 c-165 -87 -343 -524 -439 -1077 -30 -177 -49 -333 -71
-595 -68 -819 -211 -1286 -464 -1523 -82 -76 -197 -135 -297 -152 -180 -31
-467 25 -575 111 -142 112 -247 390 -304 799 -26 190 -38 387 -45 745 -9 479
-34 769 -91 1037 -108 514 -299 733 -540 619 -90 -42 -186 -137 -229 -225 -68
-139 -113 -350 -136 -631 -15 -191 -6 -741 16 -970 66 -695 219 -1320 395
-1616 140 -237 406 -423 775 -544 662 -218 1464 -155 1903 148 155 107 238
229 317 470 227 693 282 2105 114 2932 -44 216 -121 401 -190 457 -50 40 -85
44 -139 15z"/>
<path d="M51245 14900 c-380 -24 -643 -115 -911 -312 -146 -108 -432 -395
-550 -553 -272 -364 -427 -736 -475 -1140 -18 -155 -6 -442 25 -590 173 -823
822 -1395 1726 -1521 60 -8 255 -19 455 -24 383 -9 543 -25 664 -66 137 -46
210 -107 263 -219 44 -95 57 -186 67 -460 12 -333 35 -460 113 -625 44 -91
152 -199 233 -230 83 -33 229 -34 296 -3 180 82 257 329 289 928 13 239 13
1007 0 1485 -13 491 -99 2994 -106 3095 l-5 81 -697 68 c-942 91 -1129 103
-1387 86z m275 -901 c89 -24 248 -98 345 -161 323 -208 539 -506 610 -843 23
-107 24 -312 2 -426 -86 -442 -417 -803 -842 -916 -88 -23 -120 -26 -260 -27
-135 0 -175 4 -255 23 -225 55 -397 147 -535 286 -177 176 -282 415 -304 691
-48 599 295 1187 785 1348 154 50 328 60 454 25z"/>
</g>
</svg>
