<?xml version="1.0" standalone="no"?>
<!DOCTYPE svg PUBLIC "-//W3C//DTD SVG 20010904//EN"
 "http://www.w3.org/TR/2001/REC-SVG-20010904/DTD/svg10.dtd">
<svg version="1.0" xmlns="http://www.w3.org/2000/svg"
 width="10413.000000pt" height="10413.000000pt" viewBox="0 0 10413.000000 10413.000000"
 preserveAspectRatio="xMidYMid meet">

<g transform="translate(0.000000,10413.000000) scale(0.100000,-0.100000)"
fill="#000000" stroke="none">
<path d="M44297 69258 c-21 -17 -51 -88 -78 -190 -24 -89 -48 -145 -85 -194
-55 -71 -92 -176 -118 -331 -36 -211 -52 -248 -158 -370 -59 -68 -94 -151
-113 -268 -24 -152 -48 -221 -105 -305 -63 -90 -82 -128 -120 -230 -35 -95
-57 -140 -121 -245 -29 -48 -64 -130 -90 -205 -55 -165 -69 -192 -148 -275
-71 -75 -89 -111 -135 -265 -18 -61 -41 -110 -82 -170 -31 -46 -79 -132 -106
-189 -27 -58 -80 -148 -118 -201 -48 -66 -80 -126 -105 -190 -35 -92 -97 -191
-149 -240 -34 -31 -75 -102 -115 -200 -19 -46 -56 -107 -95 -156 -35 -44 -87
-126 -116 -182 -28 -56 -80 -140 -116 -187 -35 -47 -86 -132 -113 -189 -39
-80 -59 -110 -95 -140 -83 -68 -115 -110 -157 -206 -46 -105 -56 -121 -144
-238 -33 -44 -76 -108 -95 -143 -19 -34 -64 -94 -99 -133 -35 -39 -85 -102
-111 -141 -26 -38 -79 -106 -117 -151 -38 -44 -96 -123 -128 -175 -32 -52 -83
-124 -114 -161 -31 -37 -78 -106 -105 -155 -31 -54 -77 -117 -121 -163 -39
-41 -86 -95 -105 -120 -19 -25 -66 -79 -105 -120 -74 -77 -116 -136 -179 -252
-20 -37 -68 -100 -107 -140 -117 -121 -244 -272 -307 -366 -33 -49 -72 -96
-87 -106 -57 -38 -111 -94 -160 -171 -60 -93 -253 -320 -324 -382 -27 -24 -84
-89 -127 -145 -43 -57 -108 -137 -144 -178 -36 -41 -84 -100 -105 -130 -22
-30 -71 -89 -109 -130 -37 -41 -94 -109 -126 -150 -32 -41 -82 -97 -110 -125
-29 -27 -77 -82 -106 -122 -30 -39 -99 -110 -154 -158 -54 -47 -106 -95 -114
-107 -28 -39 -190 -221 -297 -333 -58 -60 -129 -139 -157 -175 -28 -36 -75
-87 -103 -115 -28 -27 -78 -84 -109 -125 -32 -41 -136 -151 -231 -245 -122
-119 -193 -197 -236 -260 -34 -49 -87 -115 -118 -145 -31 -30 -80 -84 -108
-120 -28 -36 -81 -96 -117 -135 -37 -38 -92 -109 -122 -156 -65 -100 -101
-131 -182 -154 -56 -16 -272 -17 -3565 -10 -1928 4 -7128 8 -11556 9 l-8050 1
-63 -29 c-75 -35 -107 -70 -126 -139 -20 -73 -25 -1627 -17 -5523 5 -2412 9
-3115 18 -3126 10 -11 13 -345 15 -1449 l3 -1434 36 -75 c74 -152 104 -163
449 -162 372 3 956 20 1255 38 370 23 650 30 875 23 410 -13 887 -9 1210 11
717 43 980 39 2655 -41 231 -11 535 -23 675 -26 593 -15 3123 -4 3825 16 427
13 2383 13 2675 1 839 -36 3540 -36 5025 0 231 5 624 14 872 20 249 6 564 17
700 26 204 13 326 15 688 8 546 -11 944 -11 1505 0 368 7 470 6 665 -9 152
-11 458 -20 905 -26 804 -11 994 -19 1105 -49 156 -42 261 -82 360 -137 204
-114 226 -123 456 -167 94 -18 171 -53 256 -118 102 -79 170 -106 324 -128 74
-11 148 -20 165 -20 51 0 234 -45 304 -75 167 -70 292 -103 637 -165 35 -6
147 -37 250 -69 225 -71 293 -85 494 -106 155 -16 379 -44 564 -70 350 -50
592 -87 652 -99 37 -8 120 -17 183 -21 96 -5 400 -29 630 -50 354 -32 798 -45
1450 -44 496 0 774 16 950 54 41 8 119 22 173 31 55 8 168 27 251 43 372 71
670 101 1008 101 119 0 252 5 295 10 87 12 269 60 341 91 50 22 154 52 277 80
79 18 90 20 170 34 126 23 228 53 373 111 133 53 182 67 270 80 346 48 389 61
510 151 48 36 103 72 122 81 55 23 189 59 250 67 78 10 206 58 284 105 36 22
96 52 133 66 150 58 191 77 263 121 136 83 159 94 232 115 110 31 182 71 263
146 77 71 112 92 239 143 43 18 106 54 140 80 34 27 98 72 144 101 46 29 118
81 160 115 42 35 120 85 172 112 97 50 152 98 198 172 27 44 86 93 164 137 31
18 78 52 105 75 26 23 89 76 138 117 132 110 257 237 292 300 33 57 87 113
163 170 25 18 62 52 84 74 91 96 213 234 236 266 13 19 57 73 97 119 40 46 94
122 120 170 30 56 71 110 115 156 57 56 80 91 130 192 34 67 81 148 105 180
24 32 70 112 102 178 32 66 82 152 111 190 69 91 98 157 121 278 24 130 54
192 132 275 84 90 100 122 131 272 49 235 64 285 124 410 64 135 81 190 111
375 11 66 41 185 67 265 120 373 131 439 133 780 1 118 3 249 6 290 36 567 43
1154 16 1380 -6 52 -15 172 -20 265 -11 203 -32 286 -120 475 -32 69 -75 177
-95 240 -21 63 -55 147 -76 185 -70 126 -108 209 -125 274 -24 95 -58 153
-135 236 -68 74 -120 164 -135 235 -13 62 -62 152 -139 257 -41 56 -96 135
-122 175 -26 40 -66 102 -89 138 -24 36 -59 99 -80 140 -29 59 -58 96 -139
175 -85 84 -109 115 -151 195 -31 61 -71 119 -110 160 -34 36 -89 106 -123
155 -33 50 -77 108 -97 130 -20 22 -63 75 -96 118 -33 42 -86 96 -117 119 -78
58 -103 87 -159 187 -54 97 -209 290 -318 396 -39 39 -104 115 -145 170 -40
55 -101 129 -134 165 -34 36 -79 92 -100 125 -22 33 -65 83 -97 110 -32 28
-77 77 -101 110 -23 33 -72 92 -108 130 -36 39 -85 97 -107 131 -45 65 -79 95
-161 139 -38 21 -92 71 -195 184 -78 85 -185 198 -238 251 -53 52 -117 122
-142 155 -25 33 -81 95 -125 137 -44 42 -109 120 -146 172 -36 52 -105 134
-153 183 -167 168 -259 268 -300 323 -22 30 -80 96 -129 146 -174 178 -273
292 -332 380 -33 49 -69 98 -82 109 -12 11 -62 67 -111 125 -49 58 -117 130
-152 160 -35 30 -79 75 -98 100 -45 60 -260 332 -351 446 -40 50 -93 124 -118
163 -33 53 -65 88 -123 134 -54 42 -101 92 -150 157 -38 52 -87 113 -107 135
-21 22 -60 70 -86 106 -27 36 -79 102 -115 148 -37 45 -88 123 -115 173 -29
54 -76 120 -114 162 -36 39 -96 118 -134 176 -38 58 -88 128 -111 155 -23 28
-61 77 -85 110 -24 33 -76 95 -116 138 -48 51 -84 101 -104 145 -71 152 -85
175 -159 250 -45 46 -96 111 -125 161 -27 47 -72 114 -99 150 -28 36 -81 116
-119 176 -38 61 -91 142 -118 180 -27 39 -50 78 -50 87 0 46 -68 157 -146 239
-88 93 -104 118 -154 248 -22 56 -54 111 -96 167 -35 46 -91 132 -125 191 -33
59 -76 129 -94 155 -44 60 -86 144 -119 235 -37 104 -57 140 -121 213 -70 80
-96 130 -131 251 -30 106 -65 187 -116 271 -20 32 -50 99 -68 150 -38 108 -58
144 -116 213 -61 73 -80 118 -102 243 -24 133 -48 180 -136 267 -84 83 -119
158 -145 311 -27 155 -41 195 -92 252 -54 62 -84 113 -116 203 -14 41 -30 76
-34 79 -4 3 -17 27 -29 54 -11 27 -44 85 -74 130 -86 132 -89 139 -135 371
-36 177 -64 241 -152 340 -97 110 -159 145 -202 113z m1163 -12903 c52 -8 156
-30 230 -49 148 -38 245 -56 420 -81 281 -39 423 -75 577 -145 109 -51 126
-56 288 -85 165 -31 216 -52 320 -134 93 -74 138 -98 270 -141 117 -39 138
-50 256 -135 49 -35 115 -78 146 -96 32 -18 87 -55 123 -84 36 -28 104 -77
151 -108 53 -35 108 -81 140 -119 63 -74 62 -73 253 -248 81 -74 171 -164 199
-200 29 -35 80 -96 115 -135 35 -38 83 -104 106 -145 24 -41 75 -114 112 -162
53 -67 76 -105 98 -170 44 -124 62 -156 142 -241 87 -92 106 -136 140 -323 26
-140 59 -252 122 -404 52 -126 67 -192 92 -400 12 -96 35 -249 51 -340 37
-206 63 -551 55 -745 -18 -486 -27 -588 -87 -980 -50 -324 -66 -400 -104 -493
-55 -131 -94 -257 -111 -357 -35 -204 -61 -266 -153 -368 -65 -72 -91 -117
-137 -240 -21 -56 -47 -101 -91 -155 -35 -42 -84 -117 -110 -166 -30 -57 -73
-117 -118 -165 -39 -42 -99 -110 -132 -152 -34 -42 -115 -125 -180 -185 -65
-60 -161 -152 -213 -204 -53 -52 -127 -116 -165 -141 -39 -25 -95 -67 -125
-93 -30 -26 -77 -59 -103 -72 -69 -36 -143 -85 -217 -144 -80 -64 -95 -72
-222 -116 -111 -39 -117 -42 -237 -133 -97 -73 -138 -92 -242 -115 -41 -10
-112 -26 -158 -36 -48 -11 -138 -45 -210 -78 -119 -56 -199 -82 -301 -97 -25
-3 -103 -17 -175 -30 -71 -14 -177 -31 -235 -40 -58 -9 -152 -27 -210 -41
-377 -92 -443 -97 -1193 -91 -348 3 -656 10 -715 16 -108 12 -236 36 -542 101
-102 22 -255 51 -340 65 -194 32 -261 52 -408 121 -119 57 -167 71 -331 99
-126 22 -200 54 -293 125 -94 73 -184 123 -263 146 -77 21 -139 53 -201 101
-27 22 -103 72 -169 113 -66 40 -145 92 -175 116 -30 23 -84 59 -119 79 -35
21 -91 67 -125 102 -34 36 -143 148 -243 250 -101 101 -196 203 -213 227 -17
23 -71 79 -121 126 -85 78 -95 91 -141 189 -27 58 -73 137 -103 176 -31 41
-72 112 -95 166 -53 123 -75 163 -126 229 -71 91 -77 111 -130 400 -21 118
-53 209 -105 299 -110 191 -134 334 -160 946 -10 226 -10 400 -1 790 17 746
37 901 147 1122 84 170 87 177 130 395 44 224 54 250 127 352 32 45 81 133
109 197 30 69 72 145 103 185 29 38 79 120 111 183 64 125 50 109 470 534 110
112 221 229 247 262 27 36 69 74 103 95 68 41 120 78 206 143 35 27 105 75
154 108 50 33 117 80 150 104 33 24 92 56 130 71 121 45 193 82 253 126 143
108 180 123 395 162 139 26 171 37 352 120 131 60 211 79 456 111 193 24 249
34 479 84 247 54 336 59 1055 60 538 1 689 -2 765 -14z m-25635 -345 c319 -11
591 -22 605 -25 14 -2 61 -9 105 -15 136 -20 212 -47 331 -121 139 -86 185
-106 304 -130 126 -26 158 -39 265 -113 49 -34 117 -78 150 -96 33 -19 89 -62
125 -96 36 -33 88 -78 115 -99 71 -53 104 -85 250 -245 72 -79 165 -181 207
-227 91 -98 100 -113 139 -245 36 -121 58 -166 116 -237 25 -30 53 -71 63 -91
32 -63 60 -193 80 -381 11 -100 25 -212 31 -248 6 -36 13 -187 16 -336 6 -285
-3 -433 -38 -675 -43 -292 -73 -383 -167 -512 -52 -70 -83 -129 -112 -213 -44
-123 -65 -157 -211 -335 -33 -41 -135 -150 -226 -241 -143 -145 -178 -174
-271 -230 -58 -34 -135 -89 -171 -121 -79 -72 -123 -98 -226 -133 -92 -31
-140 -52 -175 -76 -70 -47 -183 -92 -350 -139 -102 -29 -210 -64 -240 -77
-105 -47 -185 -75 -260 -90 -126 -25 -585 -35 -1990 -42 -1262 -6 -1338 -7
-1384 -25 -152 -56 -197 -139 -176 -325 13 -120 15 -2871 2 -2917 -30 -99 -92
-153 -202 -174 -72 -14 -1798 -14 -1848 0 -55 14 -107 74 -121 138 -7 36 -11
1326 -11 4399 -1 3932 0 4352 15 4386 19 46 63 87 118 109 39 16 201 17 2302
17 2069 1 2309 -1 2840 -19z m10985 10 c1210 -43 1208 -43 1457 -188 92 -53
150 -75 290 -106 131 -29 168 -44 245 -103 31 -24 106 -71 167 -106 178 -101
442 -347 561 -524 38 -55 97 -132 131 -170 61 -68 69 -82 209 -378 58 -123 67
-152 85 -260 67 -420 71 -943 10 -1295 -27 -157 -34 -176 -108 -331 -31 -64
-66 -140 -77 -170 -27 -68 -49 -99 -130 -184 -37 -38 -98 -117 -137 -175 -78
-116 -106 -144 -237 -246 -50 -38 -122 -98 -161 -134 -68 -64 -153 -120 -205
-135 -14 -5 -72 -37 -129 -72 -105 -65 -167 -96 -276 -137 -33 -13 -97 -42
-142 -65 -170 -85 -266 -106 -567 -121 -227 -12 -277 -23 -328 -70 -45 -44
-49 -77 -15 -132 32 -54 86 -91 372 -251 55 -31 143 -90 195 -132 52 -41 126
-94 164 -117 104 -62 593 -552 671 -672 30 -48 79 -113 108 -144 142 -155 290
-344 329 -422 24 -47 79 -114 138 -168 41 -36 79 -86 121 -157 34 -56 86 -134
116 -171 31 -38 74 -96 96 -129 22 -33 69 -95 104 -139 35 -43 84 -119 110
-170 37 -70 69 -113 139 -187 51 -52 107 -122 125 -155 19 -32 62 -95 98 -138
35 -44 91 -118 125 -165 35 -47 77 -102 95 -121 35 -38 76 -98 140 -205 24
-38 60 -94 82 -124 80 -111 36 -184 -110 -182 -36 1 -545 3 -1131 6 -586 2
-1087 7 -1114 10 -94 12 -190 74 -247 161 -88 134 -109 160 -153 198 -28 22
-76 77 -107 121 -54 75 -82 112 -238 320 -33 44 -89 108 -124 143 -44 43 -81
93 -118 160 -36 65 -80 124 -134 182 -44 47 -98 110 -120 140 -21 30 -62 82
-90 115 -28 33 -73 89 -99 125 -27 36 -79 95 -117 131 -38 37 -98 112 -135
170 -37 57 -90 131 -119 164 -28 33 -80 98 -116 145 -35 47 -89 112 -120 145
-30 34 -76 94 -100 135 -24 41 -76 109 -115 150 -38 41 -91 103 -117 136 -25
34 -77 89 -114 123 -37 34 -95 92 -128 130 -262 301 -281 318 -390 363 -33 13
-92 47 -131 76 -138 100 -209 123 -679 224 -121 25 -174 31 -385 39 -135 5
-270 14 -300 19 -30 5 -94 13 -141 16 -146 11 -216 -26 -262 -137 l-22 -54 -5
-1755 -5 -1755 -21 -46 c-21 -44 -56 -77 -99 -93 -24 -9 -1841 -10 -1882 -1
-91 21 -152 65 -182 134 l-21 50 0 4098 c-1 2699 -5 4170 -12 4308 -11 237 -5
288 42 353 32 44 108 87 180 101 65 13 4960 14 5310 1z"/>
<path d="M44447 54759 c-87 -4 -198 -13 -247 -18 -85 -11 -126 -21 -370 -89
-58 -16 -152 -37 -210 -46 -196 -32 -215 -36 -265 -61 -27 -14 -77 -50 -110
-81 -57 -53 -99 -77 -275 -156 -30 -14 -89 -52 -130 -84 -41 -33 -97 -75 -125
-93 -27 -19 -95 -77 -150 -129 -55 -52 -123 -116 -152 -143 -29 -28 -72 -84
-98 -130 -25 -45 -70 -115 -101 -156 -31 -40 -82 -129 -114 -196 -31 -67 -80
-159 -107 -204 -58 -94 -77 -160 -98 -335 -27 -230 -61 -427 -99 -576 -74
-287 -93 -533 -61 -791 9 -68 17 -127 19 -130 2 -3 11 -58 20 -121 17 -114 48
-283 66 -350 11 -42 36 -218 50 -352 13 -126 46 -228 104 -317 26 -40 74 -127
107 -194 34 -67 86 -155 116 -196 31 -41 76 -113 102 -160 59 -112 61 -114
161 -198 47 -39 99 -85 115 -103 17 -18 73 -64 125 -103 52 -39 118 -92 147
-118 29 -26 72 -56 95 -67 24 -11 83 -38 131 -61 58 -26 112 -61 155 -99 104
-92 110 -94 437 -167 66 -15 167 -42 226 -60 141 -44 188 -53 434 -75 253 -24
461 -25 695 -5 191 17 322 44 473 99 104 38 205 59 351 76 112 12 168 38 274
128 48 40 123 89 186 122 59 30 128 73 154 94 26 21 83 63 127 92 102 68 323
291 395 399 29 44 74 105 100 135 62 74 71 90 115 203 28 73 50 111 85 150
130 143 144 179 165 407 17 183 35 290 76 460 56 232 59 254 70 590 16 471 -2
706 -75 952 -44 149 -53 198 -71 388 -21 214 -39 263 -139 380 -52 60 -70 91
-132 227 -23 51 -72 132 -108 180 -36 49 -77 104 -91 123 -41 55 -294 307
-339 337 -23 15 -77 57 -121 92 -43 35 -100 73 -125 84 -131 56 -198 94 -271
153 -115 94 -156 110 -344 134 -161 21 -233 37 -400 91 -49 15 -112 33 -140
39 -44 10 -561 41 -625 38 -14 0 -96 -5 -183 -9z"/>
<path d="M16963 54559 c-108 -13 -188 -61 -215 -128 -7 -18 -10 -398 -10
-1174 l1 -1148 21 -44 c25 -52 77 -100 139 -129 44 -20 60 -21 416 -20 204 0
505 6 670 12 165 7 442 17 615 22 173 5 347 14 385 19 39 5 129 17 200 25 232
28 435 81 555 146 81 43 132 68 195 95 62 26 114 65 152 115 19 25 69 81 112
125 86 88 117 135 156 240 14 39 48 109 75 157 83 147 94 188 94 368 1 126 -3
165 -18 210 -20 58 -24 65 -92 170 -23 36 -54 97 -69 135 -78 200 -119 249
-341 410 -174 126 -199 140 -311 165 -49 11 -119 27 -158 36 -38 9 -122 36
-186 60 -134 50 -166 58 -342 84 -156 24 -608 45 -797 37 -74 -3 -218 -2 -320
3 -255 12 -851 18 -927 9z"/>
<path d="M27628 54554 c-56 -17 -101 -67 -117 -128 -6 -26 -11 -394 -12 -1041
-2 -982 -1 -1002 18 -1045 11 -25 31 -55 44 -67 58 -53 16 -52 1250 -47 1692
6 1899 11 2063 49 83 19 130 42 216 105 36 26 119 75 186 109 116 58 125 66
245 188 141 145 156 170 227 382 l45 136 1 155 c0 219 -35 387 -122 570 -31
64 -53 92 -161 198 -172 168 -197 184 -361 226 -145 37 -186 51 -325 116 -182
85 -167 84 -955 86 -441 1 -728 6 -785 13 -59 7 -320 11 -750 10 -545 0 -668
-3 -707 -15z"/>
<path d="M91301 57696 c-26 -31 -24 -83 5 -173 26 -80 29 -99 26 -208 -1 -66
-4 -1573 -6 -3350 -4 -3524 -7 -3357 49 -2850 l25 220 -5 2920 c-3 1606 -6
2974 -7 3040 -2 81 3 147 14 203 21 104 12 166 -31 199 -22 17 -56 16 -70 -1z"/>
<path d="M57030 56240 c-259 -6 -290 -8 -341 -28 -80 -32 -104 -67 -104 -157
0 -62 5 -80 42 -157 43 -89 63 -154 82 -269 19 -117 49 -216 101 -339 67 -159
83 -225 120 -480 35 -248 59 -325 133 -438 79 -120 96 -180 147 -516 21 -141
56 -266 111 -399 26 -65 53 -165 117 -439 11 -48 37 -126 57 -175 84 -200 107
-297 139 -569 21 -173 43 -243 117 -355 34 -52 70 -113 80 -136 18 -42 52
-215 64 -328 15 -139 49 -277 105 -425 32 -85 70 -211 85 -280 38 -179 69
-285 129 -450 58 -159 68 -202 91 -395 30 -243 60 -340 153 -494 84 -137 100
-189 132 -436 25 -193 51 -300 102 -422 47 -113 72 -203 99 -352 30 -167 53
-244 105 -351 58 -118 89 -214 104 -322 17 -115 45 -215 74 -259 15 -22 44
-46 73 -60 l48 -24 1000 -3 c971 -2 1002 -2 1065 17 86 26 150 89 212 209 54
102 77 173 114 337 17 81 42 156 76 230 91 201 106 250 129 440 21 180 58 297
129 421 80 137 96 180 142 394 22 102 49 210 59 240 73 203 101 289 129 395
52 201 77 277 134 396 71 151 83 194 106 389 27 228 54 308 153 454 55 81 84
171 107 329 26 177 50 264 103 383 56 126 80 200 111 344 33 151 54 211 121
335 62 117 88 210 105 379 20 204 33 248 120 421 52 106 87 189 100 245 35
139 71 202 125 216 60 15 116 -73 140 -219 24 -146 47 -220 106 -337 66 -133
84 -193 99 -344 24 -238 44 -303 143 -459 68 -108 87 -165 127 -380 30 -168
41 -205 120 -410 22 -60 57 -179 76 -265 41 -186 41 -185 114 -332 83 -167 97
-221 131 -500 19 -158 45 -225 145 -370 51 -74 76 -150 99 -300 26 -165 52
-262 125 -455 37 -99 78 -225 90 -280 32 -150 57 -220 116 -331 59 -111 86
-205 104 -369 30 -266 52 -340 141 -472 62 -91 86 -152 114 -290 63 -308 111
-388 257 -435 61 -19 93 -20 1023 -19 1057 0 1029 -2 1120 61 78 54 101 127
139 440 18 144 43 224 115 368 83 165 105 236 146 457 31 170 41 205 98 366
41 115 79 260 121 469 20 93 42 153 105 279 69 137 82 197 121 548 13 118 35
189 87 282 88 155 103 195 138 386 43 234 57 286 155 605 23 74 50 179 61 232
31 154 65 261 118 366 84 169 107 264 137 567 11 114 52 237 118 353 60 106
102 235 135 419 22 119 51 229 92 353 33 100 66 214 74 253 61 313 78 372 151
519 79 158 97 236 124 537 14 154 33 215 102 334 70 118 92 177 119 319 12 62
37 156 56 208 43 118 47 180 15 233 -35 56 -93 85 -187 94 -44 5 -460 6 -925
3 l-845 -5 -56 -26 c-95 -45 -127 -106 -149 -289 -16 -131 -37 -195 -99 -316
-88 -168 -98 -206 -131 -488 -29 -240 -36 -269 -126 -496 -40 -101 -77 -225
-98 -335 -52 -261 -78 -380 -100 -451 -73 -240 -86 -292 -116 -479 -32 -200
-55 -277 -134 -445 -86 -181 -100 -234 -120 -465 -19 -222 -44 -328 -116 -499
-70 -170 -80 -202 -125 -428 -45 -224 -75 -346 -131 -532 -52 -170 -57 -200
-78 -423 -17 -179 -42 -271 -84 -315 -34 -37 -55 -42 -91 -23 -49 25 -78 63
-140 185 -102 199 -117 243 -185 550 -19 85 -61 232 -94 325 -38 110 -69 221
-86 315 -38 200 -77 321 -129 405 -24 39 -56 100 -70 136 -26 64 -33 103 -77
393 -22 144 -40 201 -109 350 -48 103 -79 204 -122 396 -33 148 -47 195 -109
351 -33 82 -48 141 -71 284 -37 224 -67 324 -131 445 -28 52 -59 111 -69 132
-31 61 -58 175 -84 357 -32 218 -41 249 -119 410 -39 81 -65 162 -101 321 -14
63 -43 169 -65 235 -21 66 -41 136 -45 155 -13 63 -63 160 -102 197 -21 20
-58 45 -83 57 -45 21 -49 21 -1160 23 -701 1 -1134 -2 -1167 -8 -111 -21 -158
-82 -231 -296 -28 -81 -62 -179 -76 -218 -14 -38 -34 -133 -45 -210 -33 -226
-49 -274 -141 -410 -26 -38 -55 -84 -64 -102 -21 -41 -51 -184 -65 -306 -18
-161 -46 -256 -111 -389 -50 -102 -68 -154 -104 -300 -25 -97 -61 -216 -81
-265 -89 -214 -112 -295 -150 -548 -22 -138 -44 -197 -110 -294 -98 -143 -106
-167 -136 -401 -25 -198 -53 -297 -124 -450 -29 -63 -68 -167 -85 -230 -53
-195 -77 -270 -129 -405 -32 -84 -62 -191 -86 -300 -56 -265 -64 -291 -137
-438 -38 -76 -84 -180 -104 -230 -44 -115 -67 -152 -104 -167 -41 -17 -77 -5
-100 33 -29 47 -39 89 -50 212 -16 178 -46 322 -100 476 -60 174 -81 271 -115
518 -34 242 -44 279 -130 448 -85 165 -94 202 -136 508 -32 238 -62 367 -109
475 -42 95 -88 239 -100 313 -47 285 -52 304 -105 437 -64 160 -78 219 -105
445 -40 335 -65 426 -162 585 -69 113 -107 259 -123 470 -16 213 -47 343 -125
520 -20 46 -44 129 -61 217 -30 154 -44 190 -92 241 -62 65 -61 65 -772 67
-352 1 -768 -1 -925 -5z"/>
<path d="M74860 56238 c-107 -8 -185 -37 -232 -85 -23 -24 -55 -79 -85 -148
-27 -60 -73 -145 -102 -189 -68 -101 -85 -140 -110 -256 -33 -150 -47 -182
-112 -256 -79 -92 -100 -131 -149 -282 -23 -70 -66 -174 -96 -231 -31 -58 -75
-162 -99 -232 -52 -151 -69 -185 -130 -264 -66 -84 -81 -117 -120 -267 -43
-159 -55 -188 -132 -304 -33 -51 -73 -127 -88 -170 -15 -44 -34 -97 -42 -120
-8 -22 -43 -89 -78 -149 -43 -73 -77 -147 -105 -234 -50 -148 -72 -195 -133
-276 -67 -89 -83 -128 -111 -263 -33 -155 -40 -171 -115 -262 -69 -85 -94
-132 -144 -276 -19 -55 -65 -159 -100 -230 -38 -73 -77 -170 -92 -224 -31
-108 -59 -163 -122 -235 -59 -68 -87 -129 -122 -267 -38 -147 -61 -202 -124
-286 -63 -85 -93 -145 -129 -255 -15 -49 -55 -141 -87 -205 -32 -65 -68 -148
-81 -187 -68 -210 -90 -256 -170 -350 -67 -79 -85 -119 -115 -253 -30 -137
-50 -184 -115 -271 -54 -74 -74 -115 -131 -273 -21 -59 -63 -155 -93 -214 -30
-58 -69 -150 -87 -203 -40 -122 -75 -190 -134 -266 -57 -73 -100 -161 -120
-246 -46 -193 -59 -224 -140 -330 -63 -85 -136 -254 -142 -334 -6 -68 23 -112
92 -139 48 -18 92 -19 957 -23 643 -3 929 -1 980 7 197 30 285 125 329 354 27
145 49 200 114 288 68 91 85 126 136 274 22 65 68 180 103 254 35 74 82 192
105 262 32 96 57 150 105 225 35 54 80 143 101 197 42 108 77 156 139 189 l41
22 2005 0 2005 0 59 -24 c68 -27 129 -79 156 -131 10 -21 37 -88 59 -151 21
-63 66 -170 99 -239 33 -69 72 -161 87 -205 39 -115 68 -172 120 -235 66 -79
100 -156 139 -311 38 -151 53 -187 119 -274 58 -78 79 -121 112 -230 52 -172
101 -223 245 -254 27 -6 431 -11 1005 -13 1007 -2 997 -3 1063 40 35 22 55 68
46 105 -8 40 -100 290 -121 331 -8 17 -35 63 -59 101 -24 40 -62 126 -88 203
-45 132 -66 176 -117 242 -53 69 -98 167 -129 278 -37 137 -54 173 -121 249
-46 52 -109 161 -109 189 0 32 -69 213 -115 299 -29 55 -75 159 -101 230 -54
147 -82 202 -131 260 -47 55 -79 125 -108 235 -34 126 -54 167 -118 247 -67
83 -95 138 -143 279 -20 60 -67 170 -105 244 -38 74 -82 176 -98 227 -32 98
-58 145 -125 227 -51 63 -76 121 -111 256 -33 128 -69 206 -130 285 -56 71
-103 163 -135 260 -13 39 -51 124 -86 190 -34 66 -72 149 -84 184 -35 104 -75
185 -138 279 -94 139 -100 154 -137 336 -19 91 -51 160 -99 214 -66 75 -86
110 -146 260 -34 84 -79 185 -100 225 -22 40 -61 131 -89 203 -61 161 -68 176
-132 259 -65 86 -94 150 -120 265 -25 115 -53 176 -122 261 -63 78 -87 127
-137 276 -21 63 -62 155 -94 211 -30 54 -74 148 -96 210 -42 119 -49 131 -118
227 -63 86 -84 133 -130 285 -44 148 -74 208 -124 257 -44 42 -143 101 -193
114 -45 13 -1777 19 -1925 7z m1007 -2328 c42 -25 65 -73 98 -200 32 -129 58
-201 108 -304 21 -44 59 -140 84 -215 47 -142 75 -200 124 -255 49 -57 95
-141 111 -207 9 -35 26 -107 38 -159 24 -105 53 -168 110 -244 51 -69 73 -115
116 -243 19 -59 62 -159 95 -222 33 -62 73 -157 90 -210 67 -210 82 -241 177
-366 59 -76 93 -154 99 -225 8 -89 -4 -145 -39 -186 -64 -72 44 -67 -1328 -65
-679 1 -1246 5 -1260 8 -80 19 -120 69 -120 148 0 58 15 86 95 180 68 80 75
94 118 235 19 63 64 174 100 245 41 82 77 172 97 245 36 128 57 173 129 274
54 77 82 149 107 276 24 125 50 187 112 264 79 99 97 136 136 284 36 133 55
180 101 247 41 61 72 136 103 246 39 141 64 186 211 382 60 81 127 105 188 67z"/>
<path d="M80923 56239 c-97 -20 -141 -100 -108 -200 14 -40 35 -68 100 -133
45 -45 107 -119 137 -166 30 -47 83 -118 116 -158 34 -40 78 -98 98 -130 20
-31 75 -98 123 -148 60 -63 99 -115 130 -174 25 -47 61 -103 81 -125 69 -76
107 -130 149 -210 24 -45 70 -110 107 -150 36 -38 87 -104 115 -145 28 -41 82
-110 120 -152 38 -42 92 -114 120 -159 29 -46 78 -116 110 -157 33 -41 82
-114 109 -162 28 -48 80 -121 116 -161 37 -41 94 -114 127 -164 33 -49 86
-117 117 -150 32 -33 82 -96 113 -140 30 -44 66 -92 79 -106 59 -64 108 -131
151 -205 26 -45 77 -114 113 -155 36 -41 88 -108 116 -149 28 -41 79 -106 113
-145 34 -38 87 -111 118 -161 31 -49 83 -123 116 -163 34 -39 70 -90 82 -112
41 -82 94 -156 160 -226 37 -39 95 -111 128 -160 34 -48 86 -117 115 -152 30
-35 77 -100 105 -145 27 -44 77 -112 110 -151 34 -38 75 -96 91 -127 63 -118
60 -20 59 -1965 l-1 -1771 25 -56 c28 -60 62 -88 132 -108 29 -8 288 -11 920
-10 758 2 889 4 940 17 109 29 158 87 156 184 -6 322 -14 3420 -8 3461 9 66
44 158 99 260 52 95 69 120 140 203 32 38 83 105 113 150 29 45 79 111 110
146 31 35 78 96 105 136 27 40 76 104 109 142 33 37 84 111 113 163 36 64 79
122 134 180 48 50 97 114 120 155 39 73 68 114 145 205 25 30 71 94 101 141
31 48 79 111 106 142 28 31 78 97 112 147 33 50 87 119 119 155 32 35 85 103
119 152 33 48 87 121 120 161 32 40 82 113 111 161 30 49 74 110 98 137 24 27
77 99 118 159 40 61 98 137 129 170 31 33 80 96 110 140 29 44 79 108 110 143
31 34 84 104 117 155 34 51 87 121 119 157 31 36 85 108 119 160 35 52 87 122
115 155 29 33 74 96 101 140 60 98 68 109 141 189 33 35 68 81 79 102 40 78
104 171 157 229 30 33 74 87 98 120 24 33 74 92 111 131 37 39 74 85 83 102
35 67 9 154 -55 188 -29 15 -124 16 -1084 16 -1109 -1 -1093 0 -1201 -47 -80
-35 -119 -77 -176 -189 -29 -55 -80 -137 -113 -181 -34 -44 -85 -116 -115
-160 -29 -44 -79 -110 -110 -148 -32 -37 -81 -113 -111 -168 -30 -56 -79 -131
-109 -168 -30 -36 -96 -127 -146 -201 -206 -308 -249 -368 -299 -420 -73 -77
-87 -101 -130 -219 -39 -105 -63 -142 -140 -211 -69 -61 -90 -89 -139 -177
-68 -122 -228 -363 -306 -463 -37 -47 -86 -118 -110 -159 -23 -40 -72 -105
-107 -144 -78 -85 -106 -127 -143 -219 -36 -89 -73 -136 -124 -159 -55 -25
-101 -24 -161 5 -58 26 -99 71 -128 136 -62 143 -78 167 -160 249 -69 67 -94
102 -141 189 -31 59 -80 135 -109 169 -29 34 -76 104 -105 155 -30 52 -81 126
-113 164 -33 38 -82 106 -109 150 -28 45 -84 121 -125 169 -41 48 -95 122
-119 164 -24 42 -76 117 -115 166 -38 50 -91 125 -116 167 -25 43 -74 113
-108 156 -35 43 -89 128 -120 189 -39 74 -78 131 -118 174 -33 35 -90 109
-128 164 -37 55 -94 137 -127 182 -32 45 -76 106 -97 135 -21 29 -62 80 -93
113 -50 55 -69 88 -156 272 -33 71 -106 120 -219 149 -53 14 -196 16 -1115 17
-579 1 -1066 -1 -1081 -4z"/>
<path d="M91322 47585 l0 -1180 -22 -104 c-23 -107 -23 -171 2 -193 59 -55
127 33 113 149 -4 32 -10 513 -14 1068 -8 1103 -3 991 -66 1360 -11 70 -13
-75 -13 -1100z"/>
<path d="M52082 46230 c-41 -25 -42 -73 -2 -110 71 -66 190 -44 190 35 0 73
-115 119 -188 75z"/>
<path d="M41671 42779 c-28 -11 -112 -76 -124 -96 -13 -21 -58 -15 -121 17
-46 23 -72 30 -119 30 -56 0 -62 -2 -99 -40 -35 -34 -40 -44 -34 -70 12 -63
72 -110 140 -110 31 0 92 27 173 76 31 18 34 18 60 2 89 -56 152 -78 227 -78
76 0 102 8 210 61 70 34 88 35 216 9 79 -16 108 -18 151 -10 73 14 104 38 104
81 0 75 -136 110 -272 70 -40 -11 -87 -21 -104 -21 -17 0 -71 20 -121 45 -87
43 -94 45 -177 44 -47 0 -97 -5 -110 -10z"/>
<path d="M38983 42770 c-59 -12 -112 -42 -157 -88 -45 -47 -43 -63 12 -124 94
-104 242 -121 416 -47 115 49 148 49 246 0 128 -63 215 -56 276 24 55 72 33
174 -46 217 -54 30 -156 22 -244 -20 -37 -17 -79 -32 -93 -32 -14 0 -71 15
-126 34 -109 37 -214 50 -284 36z"/>
<path d="M42843 42766 c-66 -30 -93 -121 -54 -180 26 -38 57 -55 104 -56 63 0
98 26 116 88 28 97 -74 189 -166 148z"/>
<path d="M32025 42757 c-56 -19 -91 -44 -115 -82 -39 -62 -16 -131 60 -181 64
-43 143 -38 313 20 74 25 145 46 157 46 12 0 63 -14 113 -31 138 -47 208 -31
250 54 31 61 8 115 -62 152 -42 21 -121 15 -189 -15 -81 -36 -108 -35 -233 5
-129 42 -231 53 -294 32z"/>
<path d="M33605 42752 c-50 -32 -68 -59 -73 -110 -5 -59 13 -100 61 -136 63
-48 172 -26 274 54 35 27 46 26 109 -16 83 -55 142 -74 234 -74 93 0 159 20
249 74 32 20 69 36 81 36 12 0 40 -14 62 -31 47 -38 141 -78 182 -79 43 0 105
40 127 82 39 77 13 163 -61 201 -63 33 -188 7 -252 -53 -36 -33 -66 -33 -123
-1 -92 52 -164 71 -269 71 -106 0 -145 -11 -239 -69 -55 -32 -61 -34 -82 -21
-118 74 -142 84 -195 88 -41 2 -62 -2 -85 -16z"/>
<path d="M36861 42759 c-76 -23 -141 -83 -141 -129 0 -55 59 -116 141 -146 56
-20 129 -13 212 22 141 58 194 65 294 39 141 -38 231 -28 269 30 27 41 22 81
-14 117 -43 43 -110 48 -233 18 -106 -27 -161 -22 -288 24 -83 30 -187 41
-240 25z"/>
<path d="M38473 42755 c-45 -19 -73 -69 -73 -128 0 -78 46 -139 117 -153 46
-9 135 30 182 81 56 61 55 89 -5 144 -74 69 -148 88 -221 56z"/>
<path d="M29345 42753 c-96 -12 -216 -68 -248 -116 -20 -31 -1 -66 56 -105 71
-48 119 -65 194 -70 93 -6 152 11 204 57 34 30 42 44 46 81 4 40 1 50 -23 79
-45 54 -142 85 -229 74z"/>
<path d="M33102 42735 c-65 -54 -77 -110 -40 -177 77 -136 263 -69 245 88 -7
68 -48 106 -119 112 -48 4 -58 1 -86 -23z"/>
<path d="M35224 42746 c-38 -17 -74 -73 -74 -116 0 -73 60 -140 125 -140 99 1
158 119 103 207 -21 35 -70 63 -105 63 -10 -1 -32 -7 -49 -14z"/>
<path d="M37980 42742 c-19 -9 -45 -33 -58 -52 -56 -82 16 -200 122 -200 32 0
45 7 76 39 49 51 58 98 31 155 -14 28 -33 48 -56 59 -45 22 -71 21 -115 -1z"/>
<path d="M40063 42740 c-81 -49 -84 -168 -7 -229 59 -46 146 -32 184 31 24 40
27 116 5 158 -30 58 -120 78 -182 40z"/>
<path d="M24428 42734 c-26 -8 -88 -35 -137 -59 l-89 -45 -82 42 c-74 39 -89
43 -152 43 -67 0 -71 -1 -100 -34 -27 -30 -30 -39 -25 -79 6 -58 48 -101 103
-109 44 -5 130 23 189 62 46 32 75 38 102 23 12 -7 42 -25 67 -40 136 -79 252
-98 336 -55 116 58 121 190 10 247 -47 24 -151 26 -222 4z"/>
<path d="M27153 42739 c-41 -12 -98 -68 -107 -105 -12 -47 30 -113 94 -147 51
-27 61 -29 134 -24 90 6 187 47 243 103 39 39 41 53 11 81 -91 81 -264 124
-375 92z"/>
<path d="M29877 42736 c-63 -23 -107 -76 -107 -129 0 -60 86 -137 153 -137 32
0 46 7 78 39 39 39 45 59 39 131 -5 75 -88 123 -163 96z"/>
<path d="M23410 42728 c-13 -7 -35 -29 -48 -48 -42 -62 -16 -162 51 -196 68
-36 160 23 167 106 5 53 -1 71 -33 106 -37 40 -95 54 -137 32z"/>
<path d="M26658 42724 c-84 -45 -74 -191 15 -237 36 -19 40 -19 83 -2 115 44
127 188 20 239 -42 20 -82 20 -118 0z"/>
<path d="M28274 42730 c-11 -4 -33 -22 -47 -40 -50 -59 -27 -169 43 -205 40
-21 68 -19 107 8 63 43 81 127 40 188 -36 53 -89 71 -143 49z"/>
<path d="M36364 42704 c-27 -28 -34 -44 -34 -76 0 -75 69 -136 139 -123 46 9
117 62 130 98 24 66 -56 137 -155 137 -41 0 -51 -5 -80 -36z"/>
<path d="M40608 42724 c-64 -34 -76 -115 -25 -169 38 -42 82 -52 145 -35 102
27 139 113 75 171 -53 47 -142 62 -195 33z"/>
<path d="M24972 42696 c-33 -31 -37 -40 -37 -84 0 -40 5 -56 25 -77 55 -59
111 -70 159 -30 58 49 65 136 15 195 -22 26 -32 30 -75 30 -42 0 -55 -5 -87
-34z"/>
<path d="M28738 42707 c-49 -42 -60 -89 -34 -152 21 -50 69 -77 127 -72 60 5
135 51 162 99 l22 37 -21 28 c-55 75 -198 109 -256 60z"/>
<path d="M31527 42719 c-70 -41 -59 -193 18 -225 62 -25 121 2 155 71 29 60
15 103 -50 148 -27 19 -95 22 -123 6z"/>
<path d="M35785 42719 c-58 -33 -75 -117 -32 -156 36 -33 63 -43 116 -43 62 0
93 13 114 50 26 43 21 85 -12 122 -26 30 -34 32 -97 35 -40 2 -77 -1 -89 -8z"/>
<path d="M27723 42699 c-47 -23 -93 -65 -93 -85 0 -43 123 -124 188 -124 27 0
43 9 73 39 51 50 54 104 11 152 -24 27 -37 33 -83 36 -40 2 -65 -2 -96 -18z"/>
<path d="M30364 42697 c-20 -18 -28 -35 -31 -73 -10 -118 101 -169 164 -75 34
50 30 96 -11 137 -41 41 -82 45 -122 11z"/>
<path d="M25533 42698 c-12 -6 -29 -26 -38 -44 -13 -29 -14 -40 -4 -75 23 -74
96 -94 150 -40 50 51 37 130 -26 157 -40 16 -52 17 -82 2z"/>
<path d="M26141 42681 c-25 -23 -31 -37 -31 -70 0 -91 97 -139 158 -78 22 23
27 36 27 78 0 43 -4 54 -28 75 -39 34 -86 32 -126 -5z"/>
<path d="M30981 42674 c-66 -55 -22 -154 68 -154 52 0 81 32 81 89 0 84 -83
121 -149 65z"/>
<path d="M70790 39343 c-95 -6 -402 -43 -448 -54 -70 -15 -113 -42 -192 -121
-41 -41 -102 -92 -135 -115 -33 -23 -78 -61 -101 -85 -60 -64 -163 -228 -190
-303 -35 -98 -49 -264 -36 -424 14 -155 33 -213 106 -313 29 -40 68 -100 87
-133 43 -76 108 -142 184 -185 33 -18 87 -53 120 -78 80 -60 139 -86 272 -121
60 -16 155 -48 209 -71 131 -56 198 -76 335 -100 63 -11 125 -22 139 -24 14
-3 62 -10 107 -16 161 -21 225 -54 268 -139 74 -148 43 -381 -64 -473 -52 -45
-114 -65 -246 -83 -143 -19 -292 -19 -422 1 -230 34 -303 88 -389 289 -74 172
-161 227 -359 228 -193 1 -375 -44 -441 -109 -50 -51 -47 -88 20 -216 29 -57
67 -148 84 -203 33 -106 46 -129 159 -276 84 -111 130 -156 198 -195 28 -15
93 -56 145 -91 110 -74 172 -96 330 -114 128 -16 701 -19 860 -6 199 17 254
33 372 110 46 29 104 66 129 80 44 26 72 52 225 217 114 121 131 156 158 325
8 50 24 128 35 175 27 108 26 136 -3 273 -13 61 -27 139 -31 172 -28 242 -113
370 -328 490 -38 20 -91 56 -119 79 -178 145 -216 160 -523 206 -236 36 -275
46 -420 110 -60 26 -144 58 -185 70 -217 65 -315 181 -281 333 22 99 101 150
280 181 190 32 427 16 575 -41 137 -51 190 -99 238 -214 71 -173 148 -205 373
-158 227 48 289 78 330 164 62 126 31 282 -75 380 -18 17 -68 74 -111 129 -44
54 -114 127 -156 162 -43 35 -98 86 -121 114 -54 63 -105 96 -180 115 -124 33
-621 70 -782 58z"/>
<path d="M38180 39319 c-224 -29 -305 -60 -412 -157 -58 -51 -101 -82 -178
-125 -70 -39 -111 -76 -204 -181 -79 -90 -86 -99 -141 -191 -27 -44 -67 -105
-90 -135 -87 -114 -115 -184 -142 -355 -16 -95 -18 -180 -18 -615 0 -671 0
-672 145 -897 49 -76 108 -169 132 -206 70 -112 324 -347 463 -429 130 -77
308 -159 388 -178 170 -42 697 -36 828 8 31 10 96 42 143 70 47 29 89 52 91
52 3 0 40 16 83 37 130 61 182 106 377 328 104 119 155 208 195 343 31 102 25
214 -14 291 -37 71 -117 151 -187 183 -117 56 -280 62 -382 15 -77 -35 -106
-83 -141 -230 -17 -71 -37 -131 -55 -159 -32 -51 -121 -133 -205 -189 -96 -65
-143 -74 -361 -74 -213 0 -263 11 -372 81 -118 75 -300 303 -354 441 -47 124
-50 930 -3 1094 10 34 35 81 67 123 29 38 76 103 105 145 69 99 97 128 152
156 169 85 442 107 683 55 235 -50 280 -88 333 -278 29 -106 60 -153 119 -182
91 -44 292 -44 408 0 166 63 232 179 208 363 -19 148 -47 195 -205 348 -74 72
-170 157 -213 189 -43 31 -103 83 -133 115 -92 95 -148 116 -393 145 -220 26
-511 26 -717 -1z"/>
<path d="M11430 39310 c-62 -18 -92 -42 -116 -93 -13 -29 -24 -66 -24 -83 0
-58 31 -131 87 -200 98 -122 118 -181 138 -409 18 -198 37 -336 69 -491 25
-121 37 -162 100 -339 19 -55 40 -140 47 -190 32 -254 45 -309 107 -462 65
-160 84 -242 102 -438 7 -66 13 -122 15 -126 2 -3 9 -62 15 -132 19 -220 53
-316 147 -412 98 -99 196 -123 493 -121 146 1 158 3 212 28 88 41 124 109 174
327 27 119 49 193 89 296 15 39 40 144 56 235 31 181 51 249 101 343 79 146
98 249 133 726 16 221 29 269 83 312 59 46 145 -7 182 -113 11 -31 31 -122 45
-202 15 -90 42 -197 70 -280 32 -93 54 -186 74 -304 27 -161 31 -177 84 -284
30 -62 62 -134 71 -159 15 -48 36 -186 56 -384 27 -250 67 -375 145 -443 79
-70 131 -83 370 -94 250 -11 297 -7 359 32 81 52 110 123 155 390 22 126 42
205 71 281 51 138 76 245 90 394 15 169 31 227 98 356 32 63 63 139 70 169 21
92 50 307 62 455 27 338 33 362 123 493 68 99 91 169 112 340 9 70 30 182 46
250 34 136 33 184 -5 237 -59 85 -111 100 -339 98 -204 -2 -265 -15 -324 -66
-58 -51 -72 -96 -83 -264 -15 -226 -36 -311 -101 -408 -93 -139 -109 -199
-139 -530 -6 -66 -17 -190 -25 -275 -8 -85 -15 -196 -15 -245 0 -115 -21 -202
-57 -234 -54 -48 -132 -4 -191 108 -39 73 -59 142 -77 276 -9 61 -24 157 -35
215 -11 58 -29 175 -40 260 -28 221 -33 235 -128 379 -74 112 -91 173 -102
356 -17 279 -43 341 -165 397 -48 22 -62 23 -347 26 -279 3 -299 2 -335 -17
-44 -22 -84 -63 -106 -106 -21 -43 -102 -249 -126 -323 -31 -96 -77 -349 -94
-517 -19 -179 -31 -219 -109 -353 -75 -130 -93 -182 -107 -318 -6 -60 -16
-151 -21 -202 -15 -139 -61 -212 -124 -196 -54 13 -87 96 -106 269 -12 103
-53 311 -70 355 -25 66 -60 231 -80 375 -11 88 -27 195 -35 238 -8 43 -22 146
-31 230 -18 175 -26 223 -49 292 -53 155 -172 255 -328 274 -86 11 -381 12
-417 1z"/>
<path d="M16535 39311 c-85 -11 -139 -51 -170 -126 -15 -35 -17 -173 -15
-1602 1 -1715 -2 -1626 61 -1697 49 -57 95 -70 254 -72 258 -5 335 19 383 115
l27 56 5 745 c5 663 8 751 23 796 23 70 59 120 159 223 109 113 163 140 276
142 93 2 156 -22 199 -75 34 -43 78 -150 104 -250 20 -78 21 -105 23 -821 l1
-740 25 -50 c30 -59 101 -107 184 -125 189 -42 380 -9 460 80 63 70 61 48 61
795 0 674 -7 970 -26 1069 -17 92 -70 243 -102 292 -38 58 -241 224 -309 254
-26 11 -72 25 -100 31 -58 11 -538 14 -584 4 -16 -4 -74 -28 -129 -53 -126
-59 -173 -62 -215 -15 -48 53 -53 108 -47 486 3 196 1 355 -5 380 -14 63 -47
104 -103 131 -45 22 -67 25 -220 29 -93 2 -192 1 -220 -2z"/>
<path d="M19680 39310 c-109 -8 -167 -25 -208 -63 -65 -59 -83 -165 -58 -345
30 -222 78 -257 371 -268 138 -6 155 -5 207 15 68 26 118 79 135 143 24 89 36
269 24 331 -16 73 -61 135 -123 165 -55 28 -173 35 -348 22z"/>
<path d="M34121 39310 c-123 -26 -192 -111 -190 -235 0 -33 2 -727 3 -1542 2
-815 6 -1501 10 -1526 11 -71 57 -134 120 -163 71 -32 153 -39 306 -25 141 13
213 39 248 88 53 74 51 24 52 1693 1 1435 0 1550 -15 1582 -50 97 -120 124
-342 132 -81 3 -168 1 -192 -4z"/>
<path d="M76450 39311 c-116 -5 -141 -9 -175 -29 -47 -27 -82 -76 -92 -129 -5
-21 -6 -742 -3 -1603 l5 -1565 25 -50 c15 -31 41 -61 66 -78 37 -26 54 -30
165 -39 151 -12 284 -6 325 15 50 26 84 68 100 125 14 49 16 219 16 1631 -1
1148 -4 1584 -12 1606 -13 36 -55 82 -90 100 -33 17 -164 23 -330 16z"/>
<path d="M82965 39309 c-97 -4 -139 -10 -165 -23 -114 -59 -146 -158 -121
-372 15 -128 28 -170 66 -209 44 -47 113 -65 285 -72 184 -8 243 6 307 72 46
49 56 81 72 248 14 141 -2 223 -54 285 -57 68 -137 82 -390 71z"/>
<path d="M23186 39290 c-53 -27 -74 -48 -98 -94 -20 -39 -20 -58 -19 -1607 2
-1749 -3 -1635 71 -1709 56 -56 98 -65 275 -63 237 4 298 25 345 118 l25 50 5
1565 c4 1232 2 1575 -7 1611 -16 59 -44 94 -96 122 -39 20 -57 22 -252 24
-193 3 -213 1 -249 -17z"/>
<path d="M81352 39140 c-98 -46 -270 -167 -348 -245 -109 -108 -126 -157 -104
-305 18 -122 -12 -166 -161 -237 -51 -24 -97 -55 -116 -76 -103 -117 -71 -319
64 -413 94 -66 140 -112 164 -167 l24 -52 0 -645 c0 -630 1 -647 22 -725 26
-96 46 -139 117 -248 128 -198 201 -227 576 -227 215 0 271 9 338 53 72 49 97
102 97 207 -1 92 -13 130 -62 186 -32 37 -72 58 -157 86 -110 35 -156 81 -182
183 -12 46 -14 146 -12 593 l3 537 23 48 c29 58 81 102 147 123 120 40 179 84
214 164 43 99 36 203 -20 280 -34 47 -75 69 -206 111 -171 55 -202 110 -170
304 22 127 22 313 2 382 -34 113 -126 143 -253 83z"/>
<path d="M64105 39099 c-33 -10 -101 -27 -152 -38 -148 -32 -222 -79 -322
-205 -79 -100 -91 -131 -91 -238 0 -162 -17 -188 -175 -267 -132 -66 -171
-130 -163 -269 6 -121 42 -168 197 -265 68 -43 116 -111 127 -182 3 -22 6
-319 7 -660 l2 -620 38 -110 c88 -252 194 -375 362 -421 79 -22 406 -31 542
-15 210 25 309 119 288 276 -15 116 -71 172 -204 201 -42 9 -91 21 -109 27
-81 28 -143 114 -176 243 -24 91 -23 1036 1 1108 24 75 80 124 193 169 122 49
177 89 215 158 25 45 30 65 29 119 -1 73 -15 109 -66 157 -36 35 -127 77 -193
88 -56 11 -156 58 -182 86 -39 43 -46 105 -22 225 16 86 20 137 17 255 -3 140
-4 149 -27 173 -29 31 -53 31 -136 5z"/>
<path d="M22070 38359 c-35 -4 -109 -20 -165 -35 -130 -34 -212 -34 -380 2
-164 35 -334 39 -407 11 -64 -25 -114 -84 -128 -151 -17 -82 -9 -2169 9 -2221
18 -55 86 -120 141 -136 62 -19 356 -14 426 6 60 17 115 72 135 132 9 28 14
213 19 698 6 550 10 671 23 726 48 204 151 269 397 250 146 -11 189 -2 239 48
20 20 52 70 72 111 20 41 60 113 88 159 28 46 55 100 61 120 14 51 12 126 -4
165 -19 45 -80 93 -135 105 -65 14 -314 21 -391 10z"/>
<path d="M28670 38359 c-291 -10 -312 -16 -511 -158 -124 -89 -366 -331 -405
-405 -14 -27 -50 -122 -79 -212 -41 -123 -57 -189 -66 -271 -13 -119 -7 -428
10 -529 15 -83 115 -391 143 -436 40 -65 279 -284 360 -329 40 -23 101 -64
135 -91 89 -70 155 -94 314 -112 253 -30 675 -14 806 30 64 21 103 46 193 119
41 33 100 80 131 103 31 23 76 64 101 90 24 26 81 81 127 122 119 106 134 143
166 425 9 77 28 185 41 240 29 122 30 175 3 285 -11 47 -31 169 -44 272 -34
257 -43 277 -171 408 -57 58 -112 116 -122 130 -11 14 -45 45 -76 70 -32 25
-98 77 -148 117 -62 49 -110 79 -152 93 -109 37 -375 51 -756 39z m340 -497
c64 -32 315 -278 339 -334 34 -76 44 -202 38 -493 -8 -389 -17 -418 -177 -537
-41 -31 -97 -79 -125 -108 -65 -68 -132 -100 -208 -100 -32 0 -74 7 -93 15
-20 8 -81 58 -137 110 -56 53 -125 118 -153 144 -89 84 -150 249 -165 446 -14
187 -1 292 57 447 33 88 74 148 137 200 29 24 91 80 138 124 55 52 103 87 130
98 61 22 162 17 219 -12z"/>
<path d="M44965 38359 c-157 -6 -191 -17 -268 -88 -76 -69 -115 -91 -167 -91
-50 0 -92 23 -177 101 -63 57 -124 71 -322 73 -183 1 -204 -4 -254 -63 -54
-64 -52 -22 -52 -1196 0 -1024 1 -1093 18 -1142 10 -28 30 -64 45 -79 49 -49
83 -57 268 -62 198 -5 258 6 312 59 68 66 67 56 68 824 1 615 3 697 18 755 18
66 56 125 107 168 15 12 51 53 80 90 104 133 163 172 264 172 124 0 185 -57
235 -219 68 -218 64 -168 65 -926 1 -779 -1 -760 76 -835 93 -90 343 -116 533
-53 30 10 65 32 91 58 71 70 70 69 67 725 -4 636 -1 681 58 879 39 130 79 210
137 272 59 63 113 89 187 89 94 0 120 -17 251 -164 87 -98 113 -139 121 -193
3 -24 7 -379 8 -790 l1 -748 24 -48 c50 -100 115 -122 345 -114 182 6 225 16
273 66 67 69 66 48 65 997 0 604 -4 865 -12 895 -14 52 -44 101 -115 185 -29
34 -72 94 -96 134 -80 135 -159 205 -279 246 -49 17 -88 19 -375 19 -377 0
-370 2 -485 -115 -85 -85 -131 -110 -204 -110 -73 0 -127 25 -211 99 -83 73
-148 106 -236 120 -82 13 -285 18 -464 10z"/>
<path d="M49375 38360 c-142 -9 -198 -28 -282 -93 -114 -90 -161 -89 -268 3
-93 80 -109 85 -291 84 -232 -2 -310 -28 -353 -118 l-22 -44 0 -1590 c-1
-1752 -6 -1619 61 -1675 50 -43 92 -50 302 -54 194 -4 199 -4 252 20 62 29
100 76 115 147 8 41 -1 541 -15 775 -4 68 -2 85 16 113 44 72 102 67 220 -18
123 -89 212 -110 462 -110 338 0 466 53 678 279 136 144 178 205 215 309 15
42 49 119 76 170 27 51 55 116 64 145 23 76 36 369 26 582 -9 197 -19 238 -85
346 -19 31 -52 102 -74 158 -48 118 -61 139 -173 268 -188 218 -223 246 -345
278 -88 23 -397 36 -579 25z m87 -491 c66 -14 114 -47 199 -135 128 -134 201
-252 235 -379 15 -57 18 -107 18 -275 0 -195 -1 -209 -27 -285 -43 -129 -88
-195 -230 -334 -70 -69 -142 -134 -160 -143 -18 -10 -55 -17 -85 -18 -88 0
-115 19 -368 260 -78 74 -113 134 -141 247 -15 56 -18 112 -18 308 1 253 8
311 49 392 30 59 249 298 301 328 69 41 143 52 227 34z"/>
<path d="M61640 38358 c-149 -7 -177 -14 -305 -82 -118 -62 -158 -63 -281 -2
-122 60 -218 80 -379 81 -115 0 -135 -2 -172 -22 -56 -31 -100 -86 -113 -145
-16 -77 -13 -2105 3 -2185 17 -80 50 -126 112 -157 65 -33 144 -40 322 -28
126 8 146 12 187 36 54 31 79 75 95 161 8 41 11 278 10 755 -1 547 2 705 12
740 9 33 28 59 69 97 30 28 102 96 160 151 125 118 175 140 279 120 64 -12
115 -49 158 -116 20 -31 61 -95 91 -141 105 -160 96 -85 102 -901 5 -652 7
-719 23 -760 51 -128 151 -162 425 -142 174 13 214 31 257 117 l30 60 0 845
c0 969 6 902 -92 1035 -32 44 -85 127 -118 187 -90 162 -163 228 -294 269 -93
28 -335 40 -581 27z"/>
<path d="M24830 38354 c-163 -24 -236 -65 -267 -147 -16 -43 -18 -3123 -2
-3180 14 -52 76 -109 141 -132 42 -15 91 -20 228 -23 160 -3 180 -2 233 18 70
26 111 59 140 114 21 40 22 48 19 351 -3 295 -5 314 -28 391 -34 112 -32 163
6 204 28 30 34 32 83 28 39 -4 76 -18 152 -61 55 -31 136 -68 180 -84 72 -25
96 -28 245 -31 249 -5 402 23 509 94 18 12 91 77 162 143 212 201 296 344 370
627 l34 129 0 300 c0 393 -19 500 -127 705 -110 208 -138 246 -248 335 -36 29
-76 63 -90 77 -54 54 -122 97 -187 120 -66 22 -79 23 -378 23 -391 0 -403 -2
-529 -110 -132 -114 -171 -114 -285 2 -96 98 -130 113 -246 111 -49 0 -101 -2
-115 -4z m1099 -484 c62 -18 112 -63 194 -177 45 -62 94 -130 109 -150 41 -56
67 -151 79 -287 21 -229 -10 -495 -68 -596 -28 -50 -153 -201 -230 -277 -59
-59 -112 -84 -182 -85 -85 -1 -139 32 -258 159 -107 115 -133 156 -194 313
-74 188 -89 251 -89 366 0 98 2 110 39 202 95 239 132 301 241 412 90 92 167
130 260 130 36 0 80 -4 99 -10z"/>
<path d="M31558 38350 c-92 -11 -150 -25 -201 -52 -72 -36 -289 -221 -363
-308 -40 -47 -91 -100 -112 -117 -128 -103 -162 -268 -162 -788 0 -387 21
-578 72 -680 28 -55 281 -306 387 -383 204 -149 249 -171 404 -198 129 -22
460 -29 642 -15 174 14 234 32 312 93 91 72 126 96 173 120 25 13 86 62 135
109 50 47 107 101 129 120 57 51 90 104 140 228 25 61 50 119 56 128 106 186
123 689 30 903 -15 36 -53 123 -84 194 -30 71 -68 145 -83 165 -59 77 -262
270 -338 321 -44 30 -96 67 -116 82 -20 16 -72 41 -115 56 l-79 26 -375 2
c-206 1 -410 -2 -452 -6z m485 -480 c69 -21 105 -50 283 -220 128 -124 172
-245 181 -501 8 -216 -15 -356 -77 -480 -35 -69 -65 -105 -143 -166 -40 -32
-98 -83 -129 -114 -66 -65 -113 -90 -180 -97 -77 -7 -139 22 -231 108 -44 41
-110 98 -146 126 -121 92 -144 151 -160 399 -11 189 1 489 24 563 16 53 66
113 150 183 17 14 55 52 85 84 74 80 95 96 154 117 67 23 110 22 189 -2z"/>
<path d="M41415 38351 c-106 -17 -159 -41 -294 -132 -220 -149 -324 -262 -420
-459 -34 -69 -84 -160 -111 -203 -27 -43 -54 -99 -60 -125 -17 -70 -24 -438
-12 -572 13 -137 31 -193 88 -281 24 -37 66 -113 94 -170 63 -127 80 -151 195
-264 68 -68 112 -101 175 -134 47 -25 116 -68 154 -97 85 -65 162 -90 316
-104 170 -15 461 -12 597 5 145 19 222 44 306 98 152 98 465 412 526 527 41
76 57 151 78 360 22 215 22 369 0 610 -25 265 -42 316 -149 443 -35 40 -84
101 -110 135 -41 53 -89 96 -281 251 -59 47 -126 79 -204 97 -55 13 -144 17
-453 19 -212 2 -407 0 -435 -4z m549 -490 c27 -11 67 -43 94 -72 26 -29 83
-91 128 -138 97 -104 108 -121 130 -202 15 -54 18 -107 18 -344 0 -381 -20
-462 -132 -552 -26 -20 -91 -79 -144 -131 -54 -51 -117 -102 -140 -112 -58
-26 -149 -26 -202 0 -60 29 -312 280 -380 377 -101 146 -101 145 -101 393 1
205 2 218 26 280 14 36 49 101 78 145 59 88 277 313 328 339 96 48 212 55 297
17z"/>
<path d="M52065 38351 c-186 -29 -294 -96 -508 -315 -176 -179 -194 -204 -240
-323 -20 -51 -58 -140 -86 -200 -60 -129 -81 -237 -81 -418 0 -169 22 -300 66
-399 20 -45 54 -126 76 -181 81 -201 73 -190 234 -350 136 -134 165 -158 280
-227 207 -123 256 -132 669 -133 406 0 442 9 698 179 169 113 221 167 290 302
45 88 69 123 122 175 112 108 133 161 159 408 25 228 17 431 -24 624 -25 112
-41 147 -110 232 -31 39 -74 97 -95 130 -98 154 -122 186 -168 222 -27 21 -96
75 -154 121 -122 96 -144 108 -238 135 -63 18 -107 20 -455 23 -212 1 -408 -1
-435 -5z m520 -479 c54 -15 91 -44 153 -119 29 -34 83 -87 122 -118 112 -89
132 -140 150 -371 19 -246 -5 -516 -55 -613 -26 -53 -53 -79 -145 -143 -36
-25 -96 -73 -133 -107 -89 -81 -131 -101 -207 -101 -79 0 -121 22 -230 119
-150 134 -192 183 -237 272 -75 152 -95 227 -101 374 -5 154 12 242 76 378 77
163 227 348 322 397 83 43 200 55 285 32z"/>
<path d="M54670 38350 c-143 -15 -219 -65 -241 -156 -12 -56 -12 -2117 1
-2185 25 -131 92 -173 303 -191 235 -19 333 12 392 127 l30 59 5 720 c5 665 7
725 24 768 20 53 201 273 268 326 43 34 121 62 173 62 17 0 56 -7 86 -16 46
-14 67 -29 136 -99 91 -94 137 -174 153 -270 7 -38 10 -323 9 -775 l-2 -715
22 -57 c28 -73 75 -113 149 -129 33 -6 122 -10 222 -7 165 3 167 3 215 33 54
34 80 75 95 154 14 77 14 1689 -1 1784 -13 83 -43 156 -90 219 -19 24 -66 87
-106 140 -88 117 -125 150 -199 177 -93 35 -192 43 -495 39 -326 -4 -350 -9
-449 -94 -95 -81 -159 -102 -210 -67 -14 9 -50 40 -80 68 -85 80 -108 89 -230
91 -58 1 -139 -1 -180 -6z"/>
<path d="M58108 38350 c-78 -12 -141 -44 -207 -105 -31 -29 -97 -80 -146 -113
-75 -50 -98 -72 -134 -129 -24 -37 -65 -99 -90 -136 -105 -156 -115 -181 -172
-467 -61 -310 -59 -374 30 -767 35 -157 51 -195 123 -299 31 -44 68 -101 83
-129 49 -87 90 -128 176 -179 46 -27 111 -72 144 -99 129 -107 200 -121 615
-121 505 -1 527 6 806 272 201 192 244 247 244 317 0 50 -25 100 -69 134 -20
16 -95 54 -167 85 -171 73 -213 75 -324 15 -96 -52 -142 -90 -260 -210 -109
-111 -161 -136 -252 -126 -71 9 -112 37 -239 162 -128 126 -159 177 -159 265
0 73 26 115 88 143 45 21 58 22 357 19 171 -1 450 2 620 6 286 8 314 11 365
31 134 55 177 159 151 371 -21 172 -36 216 -123 355 -17 28 -48 95 -69 150
-49 125 -70 156 -193 289 -107 114 -172 169 -254 210 -106 54 -147 59 -532 62
-195 1 -380 -2 -412 -6z m513 -482 c53 -18 99 -59 202 -181 105 -125 117 -146
117 -214 0 -60 -23 -96 -83 -129 -49 -27 -54 -27 -311 -35 -216 -7 -270 -6
-311 6 -83 24 -125 82 -125 173 1 71 32 126 128 224 91 94 155 145 200 158 41
12 145 11 183 -2z"/>
<path d="M65800 38354 c-107 -12 -158 -35 -243 -108 -45 -39 -112 -93 -148
-118 -37 -26 -78 -61 -92 -78 -60 -71 -91 -221 -89 -436 1 -160 19 -265 56
-328 29 -49 256 -259 323 -298 25 -14 85 -36 133 -47 76 -19 234 -70 485 -157
39 -14 117 -31 175 -39 164 -22 204 -39 240 -98 25 -41 26 -118 1 -172 -25
-55 -92 -119 -159 -152 -44 -21 -74 -28 -141 -31 -47 -2 -105 1 -128 7 -71 19
-157 86 -244 189 -137 163 -188 202 -294 221 -109 20 -225 10 -333 -30 -73
-26 -95 -43 -121 -90 -21 -36 -23 -50 -18 -113 6 -70 42 -198 73 -259 32 -62
84 -115 176 -178 51 -34 115 -80 141 -101 73 -57 168 -98 270 -116 74 -13 163
-17 447 -17 468 0 525 10 694 123 99 67 235 186 289 254 47 58 82 137 96 213
17 91 14 392 -5 483 -41 202 -116 276 -383 377 -41 16 -106 46 -144 68 -103
58 -146 74 -233 87 -328 50 -380 63 -500 121 -115 57 -174 126 -174 205 0 55
32 99 98 131 51 25 67 28 157 28 166 -1 248 -36 434 -188 114 -93 164 -117
243 -117 91 1 246 16 312 31 74 16 129 62 145 121 20 70 -6 127 -114 250 -179
206 -294 300 -414 340 -64 22 -81 22 -521 24 -250 1 -471 0 -490 -2z"/>
<path d="M73825 38349 c-135 -20 -206 -54 -369 -177 -169 -126 -241 -213 -301
-363 -14 -37 -48 -93 -75 -125 -146 -174 -152 -198 -152 -584 0 -399 11 -452
120 -574 43 -48 79 -106 122 -191 55 -112 68 -130 148 -206 48 -46 115 -100
150 -119 34 -19 97 -57 140 -85 169 -109 220 -119 607 -119 394 -1 466 13 656
130 74 45 128 91 250 213 214 214 302 351 345 536 17 69 19 124 19 415 0 385
-8 449 -75 585 -41 83 -178 264 -265 349 -105 104 -247 224 -294 249 -27 15
-84 37 -127 48 -73 20 -107 22 -459 25 -209 1 -407 -2 -440 -7z m567 -499 c53
-27 80 -51 128 -115 21 -27 69 -84 107 -126 38 -42 79 -96 92 -121 48 -99 70
-328 52 -530 -14 -149 -31 -213 -76 -288 -38 -62 -306 -325 -360 -353 -54 -27
-114 -32 -180 -12 -48 13 -72 30 -140 93 -45 42 -118 109 -162 149 -92 82
-147 159 -177 247 -18 54 -20 86 -20 286 0 353 9 379 216 591 185 189 227 211
390 205 65 -3 98 -9 130 -26z"/>
<path d="M77929 38347 c-65 -18 -108 -53 -133 -106 -21 -45 -21 -55 -24 -826
-4 -867 2 -1028 45 -1155 30 -91 58 -129 185 -245 139 -127 170 -151 230 -173
162 -61 640 -54 781 11 29 13 85 54 125 91 77 71 104 86 153 86 48 0 84 -25
143 -99 30 -38 71 -79 91 -91 48 -29 131 -36 263 -20 162 19 228 55 269 145
17 38 18 105 21 1109 2 956 1 1075 -14 1124 -34 118 -125 155 -384 156 -149 0
-171 -2 -223 -23 -71 -28 -109 -59 -133 -108 -17 -35 -18 -79 -19 -638 -2
-636 -6 -716 -50 -866 -12 -44 -38 -105 -56 -135 -48 -79 -197 -234 -251 -262
-87 -43 -198 -23 -266 49 -49 53 -120 150 -141 195 -40 83 -42 138 -40 882 1
518 -2 729 -10 760 -16 57 -62 107 -119 127 -63 23 -374 31 -443 12z"/>
<path d="M84990 38354 c-52 -6 -170 -35 -209 -52 -99 -41 -298 -199 -399 -317
-24 -27 -67 -99 -97 -160 -29 -60 -80 -146 -114 -191 -33 -44 -68 -101 -77
-125 -24 -68 -37 -282 -30 -519 8 -305 20 -355 113 -470 25 -30 66 -97 93
-150 58 -116 120 -200 196 -265 69 -60 89 -74 224 -155 231 -139 254 -144 660
-145 246 0 310 3 385 18 182 37 328 131 541 348 191 196 278 337 317 518 19
86 21 128 20 411 -1 490 -23 570 -217 795 -168 195 -346 357 -441 401 -109 50
-163 56 -560 59 -203 1 -386 1 -405 -1z m489 -490 c59 -17 96 -51 268 -243 80
-88 95 -111 113 -167 31 -102 45 -316 31 -493 -12 -165 -34 -252 -80 -321 -27
-41 -211 -215 -313 -297 -67 -54 -146 -66 -227 -35 -44 17 -190 142 -332 283
-127 127 -156 236 -146 558 9 306 21 337 211 524 72 71 148 141 169 155 76 51
206 66 306 36z"/>
<path d="M87460 38351 c-81 -17 -127 -61 -150 -141 -14 -48 -13 -2149 0 -2221
14 -75 50 -122 113 -150 45 -19 74 -23 218 -27 237 -6 297 15 346 123 17 37
18 94 24 710 4 440 10 687 17 718 18 76 48 135 105 206 29 36 78 102 110 147
88 126 149 164 264 164 110 -1 143 -21 292 -185 35 -38 76 -95 90 -125 l26
-55 -3 -710 c-4 -739 -1 -809 38 -885 41 -81 89 -99 286 -107 258 -10 343 22
390 149 15 38 17 128 18 748 3 1144 -1 1177 -152 1343 -37 41 -98 109 -135
151 -43 47 -87 85 -115 100 -98 48 -125 51 -487 51 -396 0 -377 5 -496 -115
-120 -121 -183 -120 -294 4 -90 102 -110 109 -310 112 -88 2 -176 -1 -195 -5z"/>
<path d="M90928 38350 c-143 -24 -239 -78 -357 -199 -135 -139 -207 -248 -237
-358 -29 -109 -16 -340 25 -435 16 -38 84 -118 231 -275 61 -64 139 -102 285
-138 172 -43 331 -93 394 -124 69 -36 129 -53 288 -85 183 -37 243 -76 243
-160 0 -84 -95 -217 -191 -267 -36 -19 -60 -23 -134 -24 -77 0 -98 4 -145 26
-93 44 -228 166 -288 258 -57 89 -107 137 -156 151 -37 10 -70 9 -188 -5 -254
-30 -284 -40 -342 -122 -25 -36 -30 -54 -34 -122 -4 -68 -1 -86 20 -132 35
-77 232 -288 317 -339 22 -14 77 -51 122 -82 44 -31 108 -66 142 -78 91 -30
312 -43 632 -37 384 8 439 19 559 117 34 28 104 76 156 108 68 41 102 70 125
103 64 93 90 274 82 559 -7 247 -27 350 -84 432 -34 51 -76 73 -199 107 -60
17 -132 46 -170 68 -185 108 -175 105 -423 139 -119 16 -310 72 -404 119 -143
72 -186 199 -96 282 46 42 100 53 268 53 218 0 226 -3 367 -146 100 -101 116
-114 168 -129 79 -23 301 -24 377 -2 114 33 172 103 171 204 -1 115 -62 219
-174 294 -35 23 -100 75 -145 115 -96 85 -154 110 -286 124 -108 11 -851 11
-919 0z"/>
<path d="M19700 38340 c-129 -10 -180 -23 -220 -56 -69 -59 -64 29 -63 -1180
1 -1161 0 -1134 49 -1200 40 -54 94 -73 245 -85 273 -22 374 16 415 159 15 50
17 165 17 1133 l0 1077 -27 47 c-34 57 -70 80 -158 100 -71 16 -93 16 -258 5z"/>
<path d="M83079 38346 c-3 -3 -43 -6 -90 -7 -113 -2 -211 -27 -249 -64 -64
-61 -61 -1 -58 -1195 3 -1019 4 -1087 21 -1125 43 -96 95 -121 279 -136 270
-22 375 23 413 176 9 37 9 2177 -1 2208 -11 38 -54 86 -93 107 -51 26 -207 51
-222 36z"/>
</g>
</svg>
